<?xml version="1.0" standalone="no"?>
  <!DOCTYPE svg PUBLIC "-//W3C//DTD SVG 1.1//EN" "http://www.w3.org/Graphics/SVG/1.1/DTD/svg11.dtd" >
  <svg>
  <metadata>
  Created by font-carrier
  </metadata>
  <defs>
  <font id="TRYClother-Light" horiz-adv-x="1337" vert-adv-y="1337" >
    <font-face
      
      font-family="TRY Clother Light"
      
      font-weight="400"
      
      font-stretch="normal"
      
      units-per-em="1000"
      
      ascent="1143"
      
      descent="-257"
      
    />
      <missing-glyph />

      

      
      <glyph glyph-name="uni41" unicode="&#x41;" d="M642 0L587 0L501 209L163 209L78 0L25 0L308 685L359 685L642 0M332 621L183 256L482 256L332 621Z"  horiz-adv-x="667" vert-adv-y="1000"  />

      
      <glyph glyph-name="uni42" unicode="&#x42;" d="M287 0L110 0L110 685L287 685Q392 685 450.50 638.50Q509 592 509 509Q509 458 481.50 419Q454 380 404 359Q469 339 504 295Q539 251 539 190Q539 102 471 51Q403 0 287 0M455 509Q455 568 411 603Q367 638 292 638L162 638L162 380L292 380Q367 380 411 415Q455 450 455 509M485 190Q485 258 434.50 295.50Q384 333 292 333L162 333L162 47L292 47Q384 47 434.50 84.50Q485 122 485 190Z"  horiz-adv-x="609" vert-adv-y="1000"  />

      
      <glyph glyph-name="uni43" unicode="&#x43;" d="M116 342Q116 214 197 126.50Q278 39 395 39Q454 39 508 64.50Q562 90 605 139L641 102Q587 46 525.50 18Q464-10 395-10Q253-10 157.50 91Q62 192 62 342Q62 493 157.50 594Q253 695 395 695Q462 695 522 669Q582 643 632 593L597 557Q554 601 502.50 623.50Q451 646 395 646Q275 646 195.50 559.50Q116 473 116 342Z"  horiz-adv-x="674" vert-adv-y="1000"  />

      
      <glyph glyph-name="uni44" unicode="&#x44;" d="M257 0L110 0L110 685L257 685Q433 685 536 592.50Q639 500 639 342Q639 184 536 92Q433 0 257 0M585 342Q585 479 498 558.50Q411 638 262 638L162 638L162 47L262 47Q411 47 498 126.50Q585 206 585 342Z"  horiz-adv-x="700" vert-adv-y="1000"  />

      
      <glyph glyph-name="uni45" unicode="&#x45;" d="M508 0L110 0L110 685L508 685L508 638L162 638L162 380L488 380L488 333L162 333L162 47L508 47L508 0Z"  horiz-adv-x="568" vert-adv-y="1000"  />

      
      <glyph glyph-name="uni46" unicode="&#x46;" d="M162 0L110 0L110 685L498 685L498 638L162 638L162 360L478 360L478 313L162 313L162 0Z"  horiz-adv-x="543" vert-adv-y="1000"  />

      
      <glyph glyph-name="uni47" unicode="&#x47;" d="M711 309Q711 175 619 82.50Q527-10 395-10Q253-10 157.50 91Q62 192 62 342Q62 493 157.50 594Q253 695 395 695Q462 695 522 669Q582 643 632 593L598 557Q555 600 503 623Q451 646 395 646Q275 646 195.50 559.50Q116 473 116 342Q116 213 196 126Q276 39 395 39Q501 39 577.50 110Q654 181 660 285L385 285L385 332L710 332Q711 324 711 320Q711 316 711 309Z"  horiz-adv-x="754" vert-adv-y="1000"  />

      
      <glyph glyph-name="uni48" unicode="&#x48;" d="M622 0L570 0L570 333L162 333L162 0L110 0L110 685L162 685L162 380L570 380L570 685L622 685L622 0Z"  horiz-adv-x="732" vert-adv-y="1000"  />

      
      <glyph glyph-name="uni49" unicode="&#x49;" d="M162 0L110 0L110 685L162 685L162 0Z"  horiz-adv-x="272" vert-adv-y="1000"  />

      
      <glyph glyph-name="uni4a" unicode="&#x4a;" d="M187-10Q140-10 99 9Q58 28 25 65L60 100Q86 70 119 54.50Q152 39 187 39Q242 39 272.50 76Q303 113 303 181L303 685L355 685L355 181Q355 90 310.50 40Q266-10 187-10Z"  horiz-adv-x="450" vert-adv-y="1000"  />

      
      <glyph glyph-name="uni4b" unicode="&#x4b;" d="M212 327L162 327L162 0L110 0L110 685L162 685L162 374L212 374Q279 374 311.50 393Q344 412 395 494L514 685L571 685L452 494Q417 438 393.50 409Q370 380 348 363L596 0L533 0L303 338Q285 332 263 329.50Q241 327 212 327Z"  horiz-adv-x="622" vert-adv-y="1000"  />

      
      <glyph glyph-name="uni4c" unicode="&#x4c;" d="M162 47L468 47L468 0L110 0L110 685L162 685L162 47Z"  horiz-adv-x="498" vert-adv-y="1000"  />

      
      <glyph glyph-name="uni4d" unicode="&#x4d;" d="M493 0L443 0L219 595L134 0L84 0L186 685L236 685L471 65L702 685L752 685L854 0L802 0L715 591L493 0Z"  horiz-adv-x="938" vert-adv-y="1000"  />

      
      <glyph glyph-name="uni4e" unicode="&#x4e;" d="M616 0L564 0L160 600L160 0L110 0L110 685L162 685L566 85L566 685L616 685L616 0Z"  horiz-adv-x="726" vert-adv-y="1000"  />

      
      <glyph glyph-name="uni4f" unicode="&#x4f;" d="M62 342Q62 493 157.50 594Q253 695 395 695Q537 695 632.50 594Q728 493 728 342Q728 192 632.50 91Q537-10 395-10Q253-10 157.50 91Q62 192 62 342M674 342Q674 473 594.50 559.50Q515 646 395 646Q275 646 195.50 559.50Q116 473 116 342Q116 212 195.50 125.50Q275 39 395 39Q515 39 594.50 125.50Q674 212 674 342Z"  horiz-adv-x="790" vert-adv-y="1000"  />

      
      <glyph glyph-name="uni50" unicode="&#x50;" d="M162 0L110 0L110 685L287 685Q403 685 466 632.50Q529 580 529 482Q529 389 464 334.50Q399 280 287 280L162 280L162 0M475 482Q475 557 427 597.50Q379 638 292 638L162 638L162 327L292 327Q380 327 427.50 367Q475 407 475 482Z"  horiz-adv-x="579" vert-adv-y="1000"  />

      
      <glyph glyph-name="uni51" unicode="&#x51;" d="M621 79L730-48L694-80L584 49Q544 20 495.50 5Q447-10 395-10Q253-10 157.50 91Q62 192 62 342Q62 493 157.50 594Q253 695 395 695Q537 695 632.50 594Q728 493 728 342Q728 264 700.50 196Q673 128 621 79M395 646Q275 646 195.50 559.50Q116 473 116 342Q116 212 195.50 125.50Q275 39 395 39Q438 39 477.50 51.50Q517 64 551 88L431 229L467 261L588 119Q629 160 651.50 218Q674 276 674 342Q674 473 594.50 559.50Q515 646 395 646Z"  horiz-adv-x="790" vert-adv-y="1000"  />

      
      <glyph glyph-name="uni52" unicode="&#x52;" d="M162 0L110 0L110 685L305 685Q402 685 460.50 633.50Q519 582 519 497Q519 431 479.50 382Q440 333 377 316L559 0L499 0L321 309L162 309L162 0M465 497Q465 561 422.50 599.50Q380 638 310 638L162 638L162 356L310 356Q380 356 422.50 394.50Q465 433 465 497Z"  horiz-adv-x="600" vert-adv-y="1000"  />

      
      <glyph glyph-name="uni53" unicode="&#x53;" d="M291 646Q222 646 180.50 612.50Q139 579 139 522Q139 487 155.50 461Q172 435 208 415Q227 404 253.50 393.50Q280 383 334 365Q428 334 470 288.50Q512 243 512 177Q512 96 452.50 43Q393-10 303-10Q227-10 164 19Q101 48 49 106L83 145Q131 91 185 65Q239 39 303 39Q371 39 415.50 78Q460 117 460 177Q460 225 427 257.50Q394 290 303 320Q239 341 208.50 355Q178 369 156 385Q121 410 104 444Q87 478 87 522Q87 600 143.50 647.50Q200 695 291 695Q349 695 399 673Q449 651 495 606L462 568Q418 608 377 627Q336 646 291 646Z"  horiz-adv-x="566" vert-adv-y="1000"  />

      
      <glyph glyph-name="uni54" unicode="&#x54;" d="M238 638L20 638L20 685L508 685L508 638L290 638L290 0L238 0L238 638Z"  horiz-adv-x="528" vert-adv-y="1000"  />

      
      <glyph glyph-name="uni55" unicode="&#x55;" d="M339-10Q226-10 160.50 63Q95 136 95 260L95 685L147 685L147 262Q147 156 197.50 97.50Q248 39 339 39Q430 39 480.50 97.50Q531 156 531 262L531 685L583 685L583 260Q583 136 517.50 63Q452-10 339-10Z"  horiz-adv-x="678" vert-adv-y="1000"  />

      
      <glyph glyph-name="uni56" unicode="&#x56;" d="M530 685L584 685L330 0L279 0L25 685L81 685L305 67L530 685Z"  horiz-adv-x="609" vert-adv-y="1000"  />

      
      <glyph glyph-name="uni57" unicode="&#x57;" d="M660 0L609 0L474 347L339 0L288 0L25 685L80 685L317 66L449 410L342 685L396 685L476 473L556 685L606 685L501 416L636 68L870 685L923 685L660 0Z"  horiz-adv-x="948" vert-adv-y="1000"  />

      
      <glyph glyph-name="uni58" unicode="&#x58;" d="M581 0L517 0L301 310L88 0L30 0L272 352L41 685L105 685L310 390L512 685L570 685L339 349L581 0Z"  horiz-adv-x="611" vert-adv-y="1000"  />

      
      <glyph glyph-name="uni59" unicode="&#x59;" d="M494 685L549 685L311 303L311 0L259 0L259 303L20 685L78 685L286 352L494 685Z"  horiz-adv-x="569" vert-adv-y="1000"  />

      
      <glyph glyph-name="uni5a" unicode="&#x5a;" d="M110 47L509 47L509 0L45 0L45 37L434 638L58 638L58 685L499 685L499 648L110 47Z"  horiz-adv-x="554" vert-adv-y="1000"  />

      
      <glyph glyph-name="unic6" unicode="&#xc6;" d="M623 47L800 47L800 0L587 0L501 209L163 209L78 0L25 0L308 685L800 685L800 638L378 638L485 380L780 380L780 333L504 333L623 47M332 621L183 256L482 256L332 621Z"  horiz-adv-x="860" vert-adv-y="1000"  />

      
      <glyph glyph-name="uni0152" unicode="&#x0152;" d="M62 342Q62 500 165 592.50Q268 685 444 685L937 685L937 638L591 638L591 380L917 380L917 333L591 333L591 47L937 47L937 0L444 0Q268 0 165 92Q62 184 62 342M116 342Q116 206 203 126.50Q290 47 439 47L539 47L539 638L439 638Q290 638 203 558.50Q116 479 116 342Z"  horiz-adv-x="997" vert-adv-y="1000"  />

      
      <glyph glyph-name="uni0141" unicode="&#x0141;" d="M177 47L483 47L483 0L125 0L125 299L34 257L15 298L125 349L125 685L177 685L177 374L341 450L360 409L177 324L177 47Z"  horiz-adv-x="513" vert-adv-y="1000"  />

      
      <glyph glyph-name="unid8" unicode="&#xd8;" d="M728 342Q728 192 632.50 91Q537-10 395-10Q335-10 280 10Q225 30 181 68L95-29L62 0L150 99Q107 147 84.50 209.50Q62 272 62 342Q62 493 157.50 594Q253 695 395 695Q456 695 510.50 675Q565 655 609 616L695 713L728 684L640 585Q683 537 705.50 474.50Q728 412 728 342M395 646Q275 646 195.50 559.50Q116 473 116 342Q116 283 133.50 230.50Q151 178 185 138L575 578Q538 611 492 628.50Q446 646 395 646M395 39Q515 39 594.50 125.50Q674 212 674 342Q674 401 656.50 453Q639 505 606 546L215 106Q252 73 298 56Q344 39 395 39Z"  horiz-adv-x="790" vert-adv-y="1000"  />

      
      <glyph glyph-name="unid0" unicode="&#xd0;" d="M15 322L15 367L125 367L125 685L272 685Q448 685 551 592.50Q654 500 654 342Q654 184 551 92Q448 0 272 0L125 0L125 322L15 322M375 367L375 322L177 322L177 47L277 47Q426 47 513 126.50Q600 206 600 342Q600 479 513 558.50Q426 638 277 638L177 638L177 367L375 367Z"  horiz-adv-x="715" vert-adv-y="1000"  />

      
      <glyph glyph-name="unide" unicode="&#xde;" d="M529 342Q529 249 464 194.50Q399 140 287 140L162 140L162 0L110 0L110 685L162 685L162 545L287 545Q403 545 466 492.50Q529 440 529 342M475 342Q475 417 427 457.50Q379 498 292 498L162 498L162 187L292 187Q380 187 427.50 227Q475 267 475 342Z"  horiz-adv-x="584" vert-adv-y="1000"  />

      
      <glyph glyph-name="uni0191" unicode="&#x0191;" d="M31-165Q67-165 88.50-136.50Q110-108 110-59L110 685L458 685L458 638L162 638L162 360L438 360L438 313L162 313L162-64Q162-129 126-169.50Q90-210 31-210Q2-210-26.50-198Q-55-186-77-165L-46-131Q-28-147-7.50-156Q13-165 31-165Z"  horiz-adv-x="503" vert-adv-y="1000"  />

      
      <glyph glyph-name="uni1E9E" unicode="&#x1E9E;" d="M622 209Q622 113 562.50 51.50Q503-10 411-10Q357-10 309 6.50Q261 23 219 56L248 97Q288 67 328 52.50Q368 38 411 38Q481 38 524.50 85.50Q568 133 568 209Q568 298 514 345.50Q460 393 357 393L338 432L493 620Q438 637 404 642Q370 647 335 647Q242 647 193.50 590Q145 533 145 423L145 0L95 0L95 425Q95 554 158 624.50Q221 695 335 695Q381 695 425 687.50Q469 680 529 661L549 618L394 435Q503 430 562.50 370.50Q622 311 622 209Z"  horiz-adv-x="672" vert-adv-y="1000"  />

      
      <glyph glyph-name="uni61" unicode="&#x61;" d="M492 0L452 0L444 74Q415 34 372 12Q329-10 279-10Q184-10 120 56.50Q56 123 56 220Q56 318 120 384Q184 450 279 450Q329 450 372 428Q415 406 444 366L452 440L492 440L492 0M108 220Q108 142 157 89Q206 36 279 36Q351 36 400.50 89Q450 142 450 220Q450 298 400.50 351Q351 404 279 404Q206 404 157 351Q108 298 108 220Z"  horiz-adv-x="582" vert-adv-y="1000"  />

      
      <glyph glyph-name="uni62" unicode="&#x62;" d="M303 450Q398 450 462 384Q526 318 526 220Q526 123 462 56.50Q398-10 303-10Q253-10 210 12Q167 34 138 74L130 0L90 0L90 705L140 705L140 369Q169 408 211.50 429Q254 450 303 450M303 404Q231 404 181.50 351Q132 298 132 220Q132 142 181.50 89Q231 36 303 36Q376 36 425 89Q474 142 474 220Q474 298 425 351Q376 404 303 404Z"  horiz-adv-x="582" vert-adv-y="1000"  />

      
      <glyph glyph-name="uni63" unicode="&#x63;" d="M108 220Q108 141 157.50 88.50Q207 36 282 36Q319 36 353 51Q387 66 416 95L448 61Q413 25 371.50 7.50Q330-10 282-10Q185-10 120.50 55.50Q56 121 56 220Q56 319 120.50 384.50Q185 450 282 450Q327 450 366 435Q405 420 438 389L406 355Q378 380 347.50 392Q317 404 282 404Q207 404 157.50 351.50Q108 299 108 220Z"  horiz-adv-x="481" vert-adv-y="1000"  />

      
      <glyph glyph-name="uni64" unicode="&#x64;" d="M492 0L452 0L444 74Q415 34 372 12Q329-10 279-10Q184-10 120 56.50Q56 123 56 220Q56 318 120 384Q184 450 279 450Q328 450 370.50 429Q413 408 442 369L442 705L492 705L492 0M108 220Q108 142 157 89Q206 36 279 36Q351 36 400.50 89Q450 142 450 220Q450 298 400.50 351Q351 404 279 404Q206 404 157 351Q108 298 108 220Z"  horiz-adv-x="582" vert-adv-y="1000"  />

      
      <glyph glyph-name="uni65" unicode="&#x65;" d="M416 91L449 58Q415 23 374.50 6.50Q334-10 283-10Q186-10 121.50 55.50Q57 121 57 220Q57 318 119 384Q181 450 273 450Q362 450 420.50 384.50Q479 319 479 220Q479 215 479 211.50Q479 208 478 204L108 204Q113 131 162 83.50Q211 36 283 36Q322 36 355.50 50Q389 64 416 91M273 404Q209 404 163.50 360.50Q118 317 109 249L427 249Q419 318 376 361Q333 404 273 404Z"  horiz-adv-x="529" vert-adv-y="1000"  />

      
      <glyph glyph-name="uni66" unicode="&#x66;" d="M324 440L324 395L166 395L166 0L116 0L116 395L20 395L20 435L112 440L107 454Q92 492 86 517.50Q80 543 80 563Q80 632 121 673.50Q162 715 230 715Q263 715 295.50 702Q328 689 354 665L324 632Q305 649 279.50 659.50Q254 670 230 670Q186 670 158 640Q130 610 130 563Q130 544 136 520Q142 496 157 454L162 440L324 440Z"  horiz-adv-x="341" vert-adv-y="1000"  />

      
      <glyph glyph-name="uni67" unicode="&#x67;" d="M519 0Q519-93 454.50-151.50Q390-210 287-210Q222-210 164-186.50Q106-163 55-116L88-81Q133-122 183-143Q233-164 287-164Q368-164 418.50-118.50Q469-73 469 0Q469 28 463 52.50Q457 77 444 101Q415 58 369 34Q323 10 268 10Q178 10 116.50 73.50Q55 137 55 230Q55 323 116.50 386.50Q178 450 268 450Q318 450 361 428Q404 406 433 366L441 440L481 440L481 136L491 115Q504 87 511.50 57Q519 27 519 0M107 230Q107 156 153 106Q199 56 268 56Q341 56 390 103Q439 150 439 220Q439 298 389.50 351Q340 404 268 404Q199 404 153 354Q107 304 107 230Z"  horiz-adv-x="581" vert-adv-y="1000"  />

      
      <glyph glyph-name="uni68" unicode="&#x68;" d="M290 404Q249 404 209 378Q169 352 140 305L140 0L90 0L90 705L140 705L140 369Q170 407 211 428.50Q252 450 295 450Q375 450 419 400Q463 350 463 259L463 0L413 0L413 256Q413 324 380 364Q347 404 290 404Z"  horiz-adv-x="545" vert-adv-y="1000"  />

      
      <glyph glyph-name="uni69" unicode="&#x69;" d="M155 584Q155 568 143.50 556Q132 544 115 544Q99 544 87 556Q75 568 75 584Q75 601 87 612.50Q99 624 115 624Q132 624 143.50 612.50Q155 601 155 584M90 440L140 440L140 0L90 0L90 440Z"  horiz-adv-x="230" vert-adv-y="1000"  />

      
      <glyph glyph-name="uni6a" unicode="&#x6a;" d="M155 584Q155 568 143.50 556Q132 544 115 544Q99 544 87 556Q75 568 75 584Q75 601 87 612.50Q99 624 115 624Q132 624 143.50 612.50Q155 601 155 584M11-165Q47-165 68.50-136.50Q90-108 90-59L90 440L140 440L140-64Q140-129 104.50-169.50Q69-210 11-210Q-18-210-46.50-198Q-75-186-97-165L-66-131Q-48-147-27.50-156Q-7-165 11-165Z"  horiz-adv-x="230" vert-adv-y="1000"  />

      
      <glyph glyph-name="uni6b" unicode="&#x6b;" d="M180 203L140 203L140 0L90 0L90 705L140 705L140 248L180 248Q241 248 275 269.50Q309 291 334 344L379 440L433 440L388 344Q369 304 349.50 278Q330 252 308 236L463 0L402 0L262 213Q245 208 224.50 205.50Q204 203 180 203Z"  horiz-adv-x="490" vert-adv-y="1000"  />

      
      <glyph glyph-name="uni6c" unicode="&#x6c;" d="M90 705L140 705L140 0L90 0L90 705Z"  horiz-adv-x="230" vert-adv-y="1000"  />

      
      <glyph glyph-name="uni6d" unicode="&#x6d;" d="M285 405Q245 405 207 378.50Q169 352 140 304L140 0L90 0L90 440L130 440L140 368Q169 407 208.50 428.50Q248 450 290 450Q343 450 382.50 423.50Q422 397 441 351Q470 397 513 423.50Q556 450 603 450Q681 450 723.50 400.50Q766 351 766 259L766 0L716 0L716 256Q716 326 684.50 365.50Q653 405 598 405Q556 405 519.50 376Q483 347 453 290L453 0L403 0L403 256Q403 326 371.50 365.50Q340 405 285 405Z"  horiz-adv-x="848" vert-adv-y="1000"  />

      
      <glyph glyph-name="uni6e" unicode="&#x6e;" d="M290 404Q249 404 209 378Q169 352 140 305L140 0L90 0L90 440L130 440L140 368Q169 407 210 428.50Q251 450 295 450Q375 450 419 400Q463 350 463 259L463 0L413 0L413 256Q413 324 380 364Q347 404 290 404Z"  horiz-adv-x="545" vert-adv-y="1000"  />

      
      <glyph glyph-name="uni6f" unicode="&#x6f;" d="M501 220Q501 121 438 55.50Q375-10 279-10Q183-10 120 55.50Q57 121 57 220Q57 319 120 384.50Q183 450 279 450Q375 450 438 384.50Q501 319 501 220M109 220Q109 141 157.50 88.50Q206 36 279 36Q352 36 400.50 88.50Q449 141 449 220Q449 299 401 351.50Q353 404 279 404Q205 404 157 351.50Q109 299 109 220Z"  horiz-adv-x="558" vert-adv-y="1000"  />

      
      <glyph glyph-name="uni70" unicode="&#x70;" d="M526 220Q526 122 462 56Q398-10 303-10Q254-10 211.50 11Q169 32 140 71L140-200L90-200L90 440L130 440L138 366Q167 406 210 428Q253 450 303 450Q398 450 462 383.50Q526 317 526 220M303 404Q231 404 181.50 351Q132 298 132 220Q132 142 181.50 89Q231 36 303 36Q376 36 425 89Q474 142 474 220Q474 298 425 351Q376 404 303 404Z"  horiz-adv-x="582" vert-adv-y="1000"  />

      
      <glyph glyph-name="uni71" unicode="&#x71;" d="M452 440L492 440L492-200L442-200L442 71Q413 32 370.50 11Q328-10 279-10Q184-10 120 56Q56 122 56 220Q56 317 120 383.50Q184 450 279 450Q329 450 372 428Q415 406 444 366L452 440M108 220Q108 142 157 89Q206 36 279 36Q351 36 400.50 89Q450 142 450 220Q450 298 400.50 351Q351 404 279 404Q206 404 157 351Q108 298 108 220Z"  horiz-adv-x="582" vert-adv-y="1000"  />

      
      <glyph glyph-name="uni72" unicode="&#x72;" d="M290 397Q243 397 205.50 374.50Q168 352 140 308L140 0L90 0L90 440L130 440L139 369Q168 407 209.50 428.50Q251 450 295 450Q301 450 309 449.50Q317 449 322 448L314 395Q309 396 302 396.50Q295 397 290 397Z"  horiz-adv-x="336" vert-adv-y="1000"  />

      
      <glyph glyph-name="uni73" unicode="&#x73;" d="M65 334Q65 386 103 418Q141 450 202 450Q240 450 275 436.50Q310 423 339 397L307 359Q285 380 257.50 392Q230 404 202 404Q160 404 137.50 386Q115 368 115 335Q115 305 138 285Q161 265 232 244Q300 224 329 193.50Q358 163 358 118Q358 62 315 26Q272-10 203-10Q157-10 118.50 7Q80 24 45 59L78 96Q108 64 137.50 50Q167 36 203 36Q251 36 279.50 58.50Q308 81 308 118Q308 146 288.50 164Q269 182 206 202Q123 229 94 258.50Q65 288 65 334Z"  horiz-adv-x="408" vert-adv-y="1000"  />

      
      <glyph glyph-name="uni74" unicode="&#x74;" d="M122 395L26 395L26 435L122 440L123 440L132 564L172 564L172 440L334 440L334 395L172 395L172 128Q172 85 192.50 60Q213 35 248 35Q269 35 290 45.50Q311 56 330 76L359 45Q334 18 305.50 4Q277-10 246-10Q189-10 155.50 27.50Q122 65 122 128L122 395Z"  horiz-adv-x="387" vert-adv-y="1000"  />

      
      <glyph glyph-name="uni75" unicode="&#x75;" d="M444 0L404 0L395 68Q366 31 326.50 10.50Q287-10 244-10Q166-10 123.50 37Q81 84 81 171L81 440L131 440L131 174Q131 108 162 72Q193 36 249 36Q290 36 328 61Q366 86 394 132L394 440L444 440L444 0Z"  horiz-adv-x="534" vert-adv-y="1000"  />

      
      <glyph glyph-name="uni76" unicode="&#x76;" d="M387 440L438 440L255 0L205 0L22 440L74 440L231 58L387 440Z"  horiz-adv-x="460" vert-adv-y="1000"  />

      
      <glyph glyph-name="uni77" unicode="&#x77;" d="M515 0L465 0L369 213L272 0L222 0L22 440L76 440L249 60L341 263L261 440L315 440L372 315L428 440L478 440L398 266L492 61L664 440L715 440L515 0Z"  horiz-adv-x="737" vert-adv-y="1000"  />

      
      <glyph glyph-name="uni78" unicode="&#x78;" d="M416 0L354 0L217 188L80 0L25 0L191 225L35 440L97 440L223 266L351 440L406 440L250 229L416 0Z"  horiz-adv-x="441" vert-adv-y="1000"  />

      
      <glyph glyph-name="uni79" unicode="&#x79;" d="M478 0Q478-91 415-150.50Q352-210 256-210Q201-210 151-192Q101-174 57-138L85-101Q125-133 167.50-149Q210-165 256-165Q331-165 379.50-118.50Q428-72 428 0Q428 28 422 52.50Q416 77 404 100Q372 57 329 33.50Q286 10 240 10Q162 10 119.50 57.50Q77 105 77 191L77 440L127 440L127 194Q127 128 158 92Q189 56 245 56Q286 56 324 81.50Q362 107 390 153L390 440L440 440L440 136L450 115Q463 88 470.50 57.50Q478 27 478 0Z"  horiz-adv-x="540" vert-adv-y="1000"  />

      
      <glyph glyph-name="uni7a" unicode="&#x7a;" d="M104 45L389 45L389 0L40 0L40 35L315 395L50 395L50 440L379 440L379 405L104 45Z"  horiz-adv-x="429" vert-adv-y="1000"  />

      
      <glyph glyph-name="unie6" unicode="&#xe6;" d="M797 91L830 58Q796 23 755.50 6.50Q715-10 664-10Q610-10 565.50 14Q521 38 493 81L488 0L450 0L445 77Q416 36 373 13Q330-10 279-10Q184-10 120 56.50Q56 123 56 220Q56 318 120 384Q184 450 279 450Q330 450 373.50 427Q417 404 446 362L450 440L488 440L493 361Q520 404 561.50 427Q603 450 654 450Q743 450 801.50 384.50Q860 319 860 220Q860 215 860 211.50Q860 208 859 204L489 204Q494 129 543 82.50Q592 36 664 36Q703 36 736.50 50Q770 64 797 91M654 404Q589 404 543.50 361Q498 318 490 249L808 249Q800 318 757 361Q714 404 654 404M108 220Q108 142 157 89Q206 36 279 36Q351 36 400.50 89Q450 142 450 220Q450 298 400.50 351Q351 404 279 404Q206 404 157 351Q108 298 108 220Z"  horiz-adv-x="910" vert-adv-y="1000"  />

      
      <glyph glyph-name="uni0153" unicode="&#x0153;" d="M811 93L843 61Q807 25 766.50 7.50Q726-10 677-10Q611-10 558 22.50Q505 55 476 111Q448 54 396 22Q344-10 279-10Q183-10 120 55.50Q57 121 57 220Q57 319 120 384.50Q183 450 279 450Q344 450 396 418Q448 386 476 330Q503 386 554 418Q605 450 667 450Q756 450 814.50 384.50Q873 319 873 220Q873 215 873 211.50Q873 208 872 204L502 204Q507 131 556 83.50Q605 36 677 36Q715 36 749 50.50Q783 65 811 93M109 220Q109 141 157.50 88.50Q206 36 279 36Q353 36 402 88.50Q451 141 451 220Q451 299 402 351.50Q353 404 279 404Q205 404 157 351.50Q109 299 109 220M667 404Q603 404 557.50 360.50Q512 317 503 249L821 249Q813 318 770 361Q727 404 667 404Z"  horiz-adv-x="923" vert-adv-y="1000"  />

      
      <glyph glyph-name="uni0142" unicode="&#x0142;" d="M253 450L272 410L158 353L158 0L108 0L108 329L14 282L-5 322L108 378L108 705L158 705L158 403L253 450Z"  horiz-adv-x="267" vert-adv-y="1000"  />

      
      <glyph glyph-name="unif8" unicode="&#xf8;" d="M501 220Q501 121 438 55.50Q375-10 279-10Q241-10 206.50 1.50Q172 13 144 35L80-37L48-6L111 65Q85 97 71 136.50Q57 176 57 220Q57 319 120 384.50Q183 450 279 450Q317 450 351.50 438.50Q386 427 414 405L478 477L510 446L447 375Q473 343 487 303.50Q501 264 501 220M279 404Q205 404 157 351.50Q109 299 109 220Q109 187 118 157.50Q127 128 145 103L382 369Q360 386 334 395Q308 404 279 404M279 36Q352 36 400.50 88.50Q449 141 449 220Q449 253 439.50 283Q430 313 413 337L176 71Q198 54 224 45Q250 36 279 36Z"  horiz-adv-x="558" vert-adv-y="1000"  />

      
      <glyph glyph-name="unif0" unicode="&#xf0;" d="M502 264Q502 135 443 62.50Q384-10 279-10Q184-10 120.50 55.50Q57 121 57 220Q57 319 120.50 384.50Q184 450 279 450Q330 450 372 430Q414 410 445 371Q436 432 406 487.50Q376 543 327 587L244 510L216 540L295 614Q267 634 235 650Q203 666 168 676L182 715Q223 704 259.50 686Q296 668 328 644L404 715L432 685L360 618Q429 554 465.50 463.50Q502 373 502 264M109 220Q109 140 157.50 88Q206 36 279 36Q351 36 400 90Q449 144 449 223Q449 302 401 353Q353 404 279 404Q206 404 157.50 352Q109 300 109 220Z"  horiz-adv-x="559" vert-adv-y="1000"  />

      
      <glyph glyph-name="unife" unicode="&#xfe;" d="M526 220Q526 122 462 56Q398-10 303-10Q254-10 211.50 11Q169 32 140 71L140-200L90-200L90 705L140 705L140 369Q169 408 211.50 429Q254 450 303 450Q398 450 462 383.50Q526 317 526 220M303 404Q231 404 181.50 351Q132 298 132 220Q132 142 181.50 89Q231 36 303 36Q376 36 425 89Q474 142 474 220Q474 298 425 351Q376 404 303 404Z"  horiz-adv-x="582" vert-adv-y="1000"  />

      
      <glyph glyph-name="uni0192" unicode="&#x0192;" d="M324 440L324 395L166 395L166-64Q166-129 130.50-169.50Q95-210 37-210Q8-210-20.50-198Q-49-186-71-165L-40-131Q-22-147-1.50-156Q19-165 37-165Q73-165 94.50-136.50Q116-108 116-59L116 395L20 395L20 435L112 440L107 454Q92 492 86 517.50Q80 543 80 563Q80 632 121 673.50Q162 715 230 715Q263 715 295.50 702Q328 689 354 665L324 632Q305 649 279.50 659.50Q254 670 230 670Q186 670 158 640Q130 610 130 563Q130 544 136 520Q142 496 157 454L162 440L324 440Z"  horiz-adv-x="341" vert-adv-y="1000"  />

      
      <glyph glyph-name="unidf" unicode="&#xdf;" d="M367 403Q452 394 503.50 338Q555 282 555 196Q555 108 499 49Q443-10 358-10Q317-10 283 2.50Q249 15 214 44L245 82Q272 59 300.50 47.50Q329 36 358 36Q421 36 462 81Q503 126 503 196Q503 271 451.50 315.50Q400 360 310 365L302 398Q342 427 362 463Q382 499 382 544Q382 600 347 635Q312 670 254 670Q199 670 165 640Q131 610 131 563Q131 544 137 520Q143 496 158 454L167 430L167 0L117 0L117 395L23 395L23 435L113 440L108 454Q93 492 87 517.50Q81 543 81 563Q81 632 128 673.50Q175 715 254 715Q337 715 385 669Q433 623 433 544Q433 499 415.50 462.50Q398 426 367 403Z"  horiz-adv-x="609" vert-adv-y="1000"  />

      
      <glyph glyph-name="uni0131" unicode="&#x0131;" d="M90 440L140 440L140 0L90 0L90 440Z"  horiz-adv-x="230" vert-adv-y="1000"  />

      
      <glyph glyph-name="uni0237" unicode="&#x0237;" d="M11-165Q47-165 68.50-136.50Q90-108 90-59L90 440L140 440L140-64Q140-129 104.50-169.50Q69-210 11-210Q-18-210-46.50-198Q-75-186-97-165L-66-131Q-48-147-27.50-156Q-7-165 11-165Z"  horiz-adv-x="230" vert-adv-y="1000"  />

      
      <glyph glyph-name="uniFB01" unicode="&#xFB01;" d="M131 563Q131 544 137 520Q143 496 158 454L163 440L442 440L442 0L392 0L392 395L167 395L167 0L117 0L117 395L23 395L23 435L113 440L108 454Q93 492 87 517.50Q81 543 81 563Q81 632 122 673.50Q163 715 231 715Q260 715 287.50 704.50Q315 694 336 676L306 643Q292 656 271.50 663Q251 670 231 670Q187 670 159 640Q131 610 131 563M457 584Q457 568 445.50 556Q434 544 417 544Q401 544 389 556Q377 568 377 584Q377 601 389 612.50Q401 624 417 624Q434 624 445.50 612.50Q457 601 457 584Z"  horiz-adv-x="532" vert-adv-y="1000"  />

      
      <glyph glyph-name="uniFB02" unicode="&#xFB02;" d="M295 440L295 395L167 395L167 0L117 0L117 395L23 395L23 435L113 440L105 459Q93 487 87 512Q81 537 81 557Q81 631 125 673Q169 715 246 715Q290 715 327.50 704.50Q365 694 398 672L402 705L442 705L442 0L392 0L392 618L393 625Q359 648 322.50 659Q286 670 246 670Q193 670 162 639.50Q131 609 131 557Q131 537 137 512Q143 487 155 459L163 440L295 440Z"  horiz-adv-x="532" vert-adv-y="1000"  />

      
      <glyph glyph-name="unic1" unicode="&#xc1;" d="M642 0L587 0L501 209L163 209L78 0L25 0L308 685L359 685L642 0M332 621L183 256L482 256L332 621M264 755L242 786L396 907L428 861L264 755Z"  horiz-adv-x="667" vert-adv-y="1000"  />

      
      <glyph glyph-name="unic2" unicode="&#xc2;" d="M642 0L587 0L501 209L163 209L78 0L25 0L308 685L359 685L642 0M332 621L183 256L482 256L332 621M334 905L478 786L452 754L333 844L216 754L190 786L334 905Z"  horiz-adv-x="667" vert-adv-y="1000"  />

      
      <glyph glyph-name="unic4" unicode="&#xc4;" d="M642 0L587 0L501 209L163 209L78 0L25 0L308 685L359 685L642 0M332 621L183 256L482 256L332 621M289 833Q289 817 277.50 805.50Q266 794 250 794Q234 794 222.50 805.50Q211 817 211 833Q211 849 222.50 860.50Q234 872 250 872Q266 872 277.50 860.50Q289 849 289 833M457 833Q457 817 445.50 805.50Q434 794 418 794Q402 794 390.50 805.50Q379 817 379 833Q379 849 390.50 860.50Q402 872 418 872Q434 872 445.50 860.50Q457 849 457 833Z"  horiz-adv-x="667" vert-adv-y="1000"  />

      
      <glyph glyph-name="unic0" unicode="&#xc0;" d="M642 0L587 0L501 209L163 209L78 0L25 0L308 685L359 685L642 0M332 621L183 256L482 256L332 621M274 907L428 786L406 755L242 861L274 907Z"  horiz-adv-x="667" vert-adv-y="1000"  />

      
      <glyph glyph-name="unic5" unicode="&#xc5;" d="M642 0L587 0L501 209L163 209L78 0L25 0L308 685L359 685L642 0M332 621L183 256L482 256L332 621M238 833Q238 871 266 898.50Q294 926 334 926Q374 926 402 898.50Q430 871 430 833Q430 795 402 767.50Q374 740 334 740Q294 740 266 767.50Q238 795 238 833M387 833Q387 856 371.50 872Q356 888 334 888Q312 888 296.50 872Q281 856 281 833Q281 810 296.50 794Q312 778 334 778Q356 778 371.50 794Q387 810 387 833Z"  horiz-adv-x="667" vert-adv-y="1000"  />

      
      <glyph glyph-name="unic3" unicode="&#xc3;" d="M642 0L587 0L501 209L163 209L78 0L25 0L308 685L359 685L642 0M332 621L183 256L482 256L332 621M388 783Q374 783 360 788.50Q346 794 321 810Q303 822 295 825.50Q287 829 280 829Q265 829 255 819.50Q245 810 236 786L198 804Q212 839 232 857Q252 875 279 875Q292 875 305.50 870Q319 865 343 849Q362 836 371 832.50Q380 829 387 829Q400 829 409 839.50Q418 850 430 879L468 863Q452 823 432 803Q412 783 388 783Z"  horiz-adv-x="667" vert-adv-y="1000"  />

      
      <glyph glyph-name="uni0102" unicode="&#x0102;" d="M642 0L587 0L501 209L163 209L78 0L25 0L308 685L359 685L642 0M332 621L183 256L482 256L332 621M334 797Q367 797 384 817.50Q401 838 401 876L401 888L449 888L449 866Q449 816 417 785Q385 754 334 754Q284 754 251.50 786Q219 818 219 868L219 888L267 888L267 878Q267 840 284.50 818.50Q302 797 334 797Z"  horiz-adv-x="667" vert-adv-y="1000"  />

      
      <glyph glyph-name="uni0100" unicode="&#x0100;" d="M642 0L587 0L501 209L163 209L78 0L25 0L308 685L359 685L642 0M332 621L183 256L482 256L332 621M219 847L449 847L449 800L219 800L219 847Z"  horiz-adv-x="667" vert-adv-y="1000"  />

      
      <glyph glyph-name="uni0104" unicode="&#x0104;" d="M635-146L648-186Q637-191 624-193.50Q611-196 597-196Q561-196 539.50-175Q518-154 518-118Q518-85 536-54.50Q554-24 587 0L501 209L163 209L78 0L25 0L308 685L359 685L642 0Q605-25 585.50-52.50Q566-80 566-108Q566-128 576.50-140Q587-152 605-152Q614-152 621-150.50Q628-149 635-146M332 621L183 256L482 256L332 621Z"  horiz-adv-x="667" vert-adv-y="1000"  />

      
      <glyph glyph-name="unic7" unicode="&#xc7;" d="M468-132Q468-166 443-188Q418-210 378-210Q359-210 340.50-205.50Q322-201 303-192L317-152Q334-160 348.50-163.50Q363-167 378-167Q397-167 408.50-157.50Q420-148 420-132Q420-114 407-105.50Q394-97 367-97L337-71L357-8Q229 6 145.50 105Q62 204 62 342Q62 493 157.50 594Q253 695 395 695Q462 695 522 669Q582 643 632 593L597 557Q554 601 502.50 623.50Q451 646 395 646Q275 646 195.50 559.50Q116 473 116 342Q116 214 197 126.50Q278 39 395 39Q454 39 508 64.50Q562 90 605 139L641 102Q588 47 527 18.50Q466-10 400-10L385-55Q425-56 446.50-76Q468-96 468-132Z"  horiz-adv-x="674" vert-adv-y="1000"  />

      
      <glyph glyph-name="uni0106" unicode="&#x0106;" d="M116 342Q116 214 197 126.50Q278 39 395 39Q454 39 508 64.50Q562 90 605 139L641 102Q587 46 525.50 18Q464-10 395-10Q253-10 157.50 91Q62 192 62 342Q62 493 157.50 594Q253 695 395 695Q462 695 522 669Q582 643 632 593L597 557Q554 601 502.50 623.50Q451 646 395 646Q275 646 195.50 559.50Q116 473 116 342M317 755L295 786L449 907L481 861L317 755Z"  horiz-adv-x="674" vert-adv-y="1000"  />

      
      <glyph glyph-name="uni010C" unicode="&#x010C;" d="M116 342Q116 214 197 126.50Q278 39 395 39Q454 39 508 64.50Q562 90 605 139L641 102Q587 46 525.50 18Q464-10 395-10Q253-10 157.50 91Q62 192 62 342Q62 493 157.50 594Q253 695 395 695Q462 695 522 669Q582 643 632 593L597 557Q554 601 502.50 623.50Q451 646 395 646Q275 646 195.50 559.50Q116 473 116 342M505 905L531 873L387 754L243 873L269 905L388 815L505 905Z"  horiz-adv-x="674" vert-adv-y="1000"  />

      
      <glyph glyph-name="uni0108" unicode="&#x0108;" d="M116 342Q116 214 197 126.50Q278 39 395 39Q454 39 508 64.50Q562 90 605 139L641 102Q587 46 525.50 18Q464-10 395-10Q253-10 157.50 91Q62 192 62 342Q62 493 157.50 594Q253 695 395 695Q462 695 522 669Q582 643 632 593L597 557Q554 601 502.50 623.50Q451 646 395 646Q275 646 195.50 559.50Q116 473 116 342M387 905L531 786L505 754L386 844L269 754L243 786L387 905Z"  horiz-adv-x="674" vert-adv-y="1000"  />

      
      <glyph glyph-name="uni010A" unicode="&#x010A;" d="M116 342Q116 214 197 126.50Q278 39 395 39Q454 39 508 64.50Q562 90 605 139L641 102Q587 46 525.50 18Q464-10 395-10Q253-10 157.50 91Q62 192 62 342Q62 493 157.50 594Q253 695 395 695Q462 695 522 669Q582 643 632 593L597 557Q554 601 502.50 623.50Q451 646 395 646Q275 646 195.50 559.50Q116 473 116 342M431 833Q431 815 418 802Q405 789 387 789Q369 789 356 802Q343 815 343 833Q343 851 356 864Q369 877 387 877Q405 877 418 864Q431 851 431 833Z"  horiz-adv-x="674" vert-adv-y="1000"  />

      
      <glyph glyph-name="uni010E" unicode="&#x010E;" d="M257 0L110 0L110 685L257 685Q433 685 536 592.50Q639 500 639 342Q639 184 536 92Q433 0 257 0M585 342Q585 479 498 558.50Q411 638 262 638L162 638L162 47L262 47Q411 47 498 126.50Q585 206 585 342M428 905L454 873L310 754L166 873L192 905L311 815L428 905Z"  horiz-adv-x="700" vert-adv-y="1000"  />

      
      <glyph glyph-name="uni0110" unicode="&#x0110;" d="M15 322L15 367L125 367L125 685L272 685Q448 685 551 592.50Q654 500 654 342Q654 184 551 92Q448 0 272 0L125 0L125 322L15 322M375 367L375 322L177 322L177 47L277 47Q426 47 513 126.50Q600 206 600 342Q600 479 513 558.50Q426 638 277 638L177 638L177 367L375 367Z"  horiz-adv-x="715" vert-adv-y="1000"  />

      
      <glyph glyph-name="unic9" unicode="&#xc9;" d="M508 0L110 0L110 685L508 685L508 638L162 638L162 380L488 380L488 333L162 333L162 47L508 47L508 0M239 755L217 786L371 907L403 861L239 755Z"  horiz-adv-x="568" vert-adv-y="1000"  />

      
      <glyph glyph-name="unica" unicode="&#xca;" d="M508 0L110 0L110 685L508 685L508 638L162 638L162 380L488 380L488 333L162 333L162 47L508 47L508 0M309 905L453 786L427 754L308 844L191 754L165 786L309 905Z"  horiz-adv-x="568" vert-adv-y="1000"  />

      
      <glyph glyph-name="unicb" unicode="&#xcb;" d="M508 0L110 0L110 685L508 685L508 638L162 638L162 380L488 380L488 333L162 333L162 47L508 47L508 0M264 833Q264 817 252.50 805.50Q241 794 225 794Q209 794 197.50 805.50Q186 817 186 833Q186 849 197.50 860.50Q209 872 225 872Q241 872 252.50 860.50Q264 849 264 833M432 833Q432 817 420.50 805.50Q409 794 393 794Q377 794 365.50 805.50Q354 817 354 833Q354 849 365.50 860.50Q377 872 393 872Q409 872 420.50 860.50Q432 849 432 833Z"  horiz-adv-x="568" vert-adv-y="1000"  />

      
      <glyph glyph-name="unic8" unicode="&#xc8;" d="M508 0L110 0L110 685L508 685L508 638L162 638L162 380L488 380L488 333L162 333L162 47L508 47L508 0M249 907L403 786L381 755L217 861L249 907Z"  horiz-adv-x="568" vert-adv-y="1000"  />

      
      <glyph glyph-name="uni0114" unicode="&#x0114;" d="M508 0L110 0L110 685L508 685L508 638L162 638L162 380L488 380L488 333L162 333L162 47L508 47L508 0M309 797Q342 797 359 817.50Q376 838 376 876L376 888L424 888L424 866Q424 816 392 785Q360 754 309 754Q259 754 226.50 786Q194 818 194 868L194 888L242 888L242 878Q242 840 259.50 818.50Q277 797 309 797Z"  horiz-adv-x="568" vert-adv-y="1000"  />

      
      <glyph glyph-name="uni011A" unicode="&#x011A;" d="M508 0L110 0L110 685L508 685L508 638L162 638L162 380L488 380L488 333L162 333L162 47L508 47L508 0M427 905L453 873L309 754L165 873L191 905L310 815L427 905Z"  horiz-adv-x="568" vert-adv-y="1000"  />

      
      <glyph glyph-name="uni0116" unicode="&#x0116;" d="M508 0L110 0L110 685L508 685L508 638L162 638L162 380L488 380L488 333L162 333L162 47L508 47L508 0M353 833Q353 815 340 802Q327 789 309 789Q291 789 278 802Q265 815 265 833Q265 851 278 864Q291 877 309 877Q327 877 340 864Q353 851 353 833Z"  horiz-adv-x="568" vert-adv-y="1000"  />

      
      <glyph glyph-name="uni0112" unicode="&#x0112;" d="M508 0L110 0L110 685L508 685L508 638L162 638L162 380L488 380L488 333L162 333L162 47L508 47L508 0M194 847L424 847L424 800L194 800L194 847Z"  horiz-adv-x="568" vert-adv-y="1000"  />

      
      <glyph glyph-name="uni0118" unicode="&#x0118;" d="M451-146L464-186Q453-191 440-193.50Q427-196 413-196Q377-196 355.50-175Q334-154 334-118Q334-85 351.50-55Q369-25 402 0L110 0L110 685L508 685L508 638L162 638L162 380L488 380L488 333L162 333L162 47L508 47L508 0L458 0Q421-25 401.50-52.50Q382-80 382-108Q382-128 392.50-140Q403-152 421-152Q430-152 437-150.50Q444-149 451-146Z"  horiz-adv-x="568" vert-adv-y="1000"  />

      
      <glyph glyph-name="uni011E" unicode="&#x011E;" d="M711 309Q711 175 619 82.50Q527-10 395-10Q253-10 157.50 91Q62 192 62 342Q62 493 157.50 594Q253 695 395 695Q462 695 522 669Q582 643 632 593L598 557Q555 600 503 623Q451 646 395 646Q275 646 195.50 559.50Q116 473 116 342Q116 213 196 126Q276 39 395 39Q501 39 577.50 110Q654 181 660 285L385 285L385 332L710 332Q711 324 711 320Q711 316 711 309M387 797Q420 797 437 817.50Q454 838 454 876L454 888L502 888L502 866Q502 816 470 785Q438 754 387 754Q337 754 304.50 786Q272 818 272 868L272 888L320 888L320 878Q320 840 337.50 818.50Q355 797 387 797Z"  horiz-adv-x="754" vert-adv-y="1000"  />

      
      <glyph glyph-name="uni011C" unicode="&#x011C;" d="M711 309Q711 175 619 82.50Q527-10 395-10Q253-10 157.50 91Q62 192 62 342Q62 493 157.50 594Q253 695 395 695Q462 695 522 669Q582 643 632 593L598 557Q555 600 503 623Q451 646 395 646Q275 646 195.50 559.50Q116 473 116 342Q116 213 196 126Q276 39 395 39Q501 39 577.50 110Q654 181 660 285L385 285L385 332L710 332Q711 324 711 320Q711 316 711 309M387 905L531 786L505 754L386 844L269 754L243 786L387 905Z"  horiz-adv-x="754" vert-adv-y="1000"  />

      
      <glyph glyph-name="uni0122" unicode="&#x0122;" d="M711 309Q711 175 619 82.50Q527-10 395-10Q253-10 157.50 91Q62 192 62 342Q62 493 157.50 594Q253 695 395 695Q462 695 522 669Q582 643 632 593L598 557Q555 600 503 623Q451 646 395 646Q275 646 195.50 559.50Q116 473 116 342Q116 213 196 126Q276 39 395 39Q501 39 577.50 110Q654 181 660 285L385 285L385 332L710 332Q711 324 711 320Q711 316 711 309M395-59Q411-59 423-72Q435-85 435-102Q435-110 433-118.50Q431-127 428-134L380-235L343-235L378-135Q366-128 359.50-119Q353-110 353-99Q353-83 365.50-71Q378-59 395-59Z"  horiz-adv-x="754" vert-adv-y="1000"  />

      
      <glyph glyph-name="uni0120" unicode="&#x0120;" d="M711 309Q711 175 619 82.50Q527-10 395-10Q253-10 157.50 91Q62 192 62 342Q62 493 157.50 594Q253 695 395 695Q462 695 522 669Q582 643 632 593L598 557Q555 600 503 623Q451 646 395 646Q275 646 195.50 559.50Q116 473 116 342Q116 213 196 126Q276 39 395 39Q501 39 577.50 110Q654 181 660 285L385 285L385 332L710 332Q711 324 711 320Q711 316 711 309M431 833Q431 815 418 802Q405 789 387 789Q369 789 356 802Q343 815 343 833Q343 851 356 864Q369 877 387 877Q405 877 418 864Q431 851 431 833Z"  horiz-adv-x="754" vert-adv-y="1000"  />

      
      <glyph glyph-name="uni0126" unicode="&#x0126;" d="M570 333L162 333L162 0L110 0L110 509L0 509L0 554L110 554L110 685L162 685L162 554L570 554L570 685L622 685L622 554L732 554L732 509L622 509L622 0L570 0L570 333M162 509L162 380L570 380L570 509L162 509Z"  horiz-adv-x="732" vert-adv-y="1000"  />

      
      <glyph glyph-name="uni0124" unicode="&#x0124;" d="M622 0L570 0L570 333L162 333L162 0L110 0L110 685L162 685L162 380L570 380L570 685L622 685L622 0M366 905L510 786L484 754L365 844L248 754L222 786L366 905Z"  horiz-adv-x="732" vert-adv-y="1000"  />

      
      <glyph glyph-name="unicd" unicode="&#xcd;" d="M162 0L110 0L110 685L162 685L162 0M72 755L50 786L204 907L236 861L72 755Z"  horiz-adv-x="272" vert-adv-y="1000"  />

      
      <glyph glyph-name="unice" unicode="&#xce;" d="M162 0L110 0L110 685L162 685L162 0M136 905L280 786L254 754L135 844L18 754L-8 786L136 905Z"  horiz-adv-x="272" vert-adv-y="1000"  />

      
      <glyph glyph-name="unicf" unicode="&#xcf;" d="M162 0L110 0L110 685L162 685L162 0M91 833Q91 817 79.50 805.50Q68 794 52 794Q36 794 24.50 805.50Q13 817 13 833Q13 849 24.50 860.50Q36 872 52 872Q68 872 79.50 860.50Q91 849 91 833M259 833Q259 817 247.50 805.50Q236 794 220 794Q204 794 192.50 805.50Q181 817 181 833Q181 849 192.50 860.50Q204 872 220 872Q236 872 247.50 860.50Q259 849 259 833Z"  horiz-adv-x="272" vert-adv-y="1000"  />

      
      <glyph glyph-name="unicc" unicode="&#xcc;" d="M162 0L110 0L110 685L162 685L162 0M75 907L229 786L207 755L43 861L75 907Z"  horiz-adv-x="272" vert-adv-y="1000"  />

      
      <glyph glyph-name="uni012C" unicode="&#x012C;" d="M162 0L110 0L110 685L162 685L162 0M136 797Q169 797 186 817.50Q203 838 203 876L203 888L251 888L251 866Q251 816 219 785Q187 754 136 754Q86 754 53.50 786Q21 818 21 868L21 888L69 888L69 878Q69 840 86.50 818.50Q104 797 136 797Z"  horiz-adv-x="272" vert-adv-y="1000"  />

      
      <glyph glyph-name="uni0130" unicode="&#x0130;" d="M162 0L110 0L110 685L162 685L162 0M180 833Q180 815 167 802Q154 789 136 789Q118 789 105 802Q92 815 92 833Q92 851 105 864Q118 877 136 877Q154 877 167 864Q180 851 180 833Z"  horiz-adv-x="272" vert-adv-y="1000"  />

      
      <glyph glyph-name="uni012A" unicode="&#x012A;" d="M162 0L110 0L110 685L162 685L162 0M21 847L251 847L251 800L21 800L21 847Z"  horiz-adv-x="272" vert-adv-y="1000"  />

      
      <glyph glyph-name="uni012E" unicode="&#x012E;" d="M155-146L168-186Q157-191 144-193.50Q131-196 117-196Q81-196 59.50-175Q38-154 38-118Q38-84 56.50-52.50Q75-21 110 3L110 685L162 685L162 0Q125-25 105.50-52.50Q86-80 86-108Q86-128 96.50-140Q107-152 125-152Q134-152 141-150.50Q148-149 155-146Z"  horiz-adv-x="272" vert-adv-y="1000"  />

      
      <glyph glyph-name="uni0128" unicode="&#x0128;" d="M162 0L110 0L110 685L162 685L162 0M190 783Q176 783 162 788.50Q148 794 123 810Q105 822 97 825.50Q89 829 82 829Q67 829 57 819.50Q47 810 38 786L0 804Q14 839 34 857Q54 875 81 875Q94 875 107.50 870Q121 865 145 849Q164 836 173 832.50Q182 829 189 829Q202 829 211 839.50Q220 850 232 879L270 863Q254 823 234 803Q214 783 190 783Z"  horiz-adv-x="272" vert-adv-y="1000"  />

      
      <glyph glyph-name="uni0134" unicode="&#x0134;" d="M177-10Q130-10 89 9Q48 28 15 65L50 100Q76 70 109 54.50Q142 39 177 39Q232 39 262.50 76Q293 113 293 181L293 685L345 685L345 181Q345 90 300.50 40Q256-10 177-10M316 905L460 786L434 754L315 844L198 754L172 786L316 905Z"  horiz-adv-x="440" vert-adv-y="1000"  />

      
      <glyph glyph-name="uni0132" unicode="&#x0132;" d="M162 314L110 314L110 685L162 685L162 314M298-10Q251-10 210 9Q169 28 136 65L171 100Q197 70 230 54.50Q263 39 298 39Q353 39 383.50 76Q414 113 414 181L414 685L466 685L466 181Q466 90 421.50 40Q377-10 298-10Z"  horiz-adv-x="561" vert-adv-y="1000"  />

      
      <glyph glyph-name="uni0136" unicode="&#x0136;" d="M212 327L162 327L162 0L110 0L110 685L162 685L162 374L212 374Q279 374 311.50 393Q344 412 395 494L514 685L571 685L452 494Q417 438 393.50 409Q370 380 348 363L596 0L533 0L303 338Q285 332 263 329.50Q241 327 212 327M329-59Q345-59 357-72Q369-85 369-102Q369-110 367-118.50Q365-127 362-134L314-235L277-235L312-135Q300-128 293.50-119Q287-110 287-99Q287-83 299.50-71Q312-59 329-59Z"  horiz-adv-x="622" vert-adv-y="1000"  />

      
      <glyph glyph-name="uni0139" unicode="&#x0139;" d="M162 47L468 47L468 0L110 0L110 685L162 685L162 47M116 755L94 786L248 907L280 861L116 755Z"  horiz-adv-x="498" vert-adv-y="1000"  />

      
      <glyph glyph-name="uni013D" unicode="&#x013D;" d="M162 47L468 47L468 0L110 0L110 685L162 685L162 47M303 685L293 509L253 509L253 685L303 685Z"  horiz-adv-x="498" vert-adv-y="1000"  />

      
      <glyph glyph-name="uni013B" unicode="&#x013B;" d="M162 47L468 47L468 0L110 0L110 685L162 685L162 47M280-59Q296-59 308-72Q320-85 320-102Q320-110 318-118.50Q316-127 313-134L265-235L228-235L263-135Q251-128 244.50-119Q238-110 238-99Q238-83 250.50-71Q263-59 280-59Z"  horiz-adv-x="498" vert-adv-y="1000"  />

      
      <glyph glyph-name="uni013F" unicode="&#x013F;" d="M162 47L468 47L468 0L110 0L110 685L162 685L162 47M421 341Q421 323 408 310Q395 297 377 297Q359 297 346 310Q333 323 333 341Q333 359 346 372Q359 385 377 385Q395 385 408 372Q421 359 421 341Z"  horiz-adv-x="498" vert-adv-y="1000"  />

      
      <glyph glyph-name="unid1" unicode="&#xd1;" d="M616 0L564 0L160 600L160 0L110 0L110 685L162 685L566 85L566 685L616 685L616 0M417 783Q403 783 389 788.50Q375 794 350 810Q332 822 324 825.50Q316 829 309 829Q294 829 284 819.50Q274 810 265 786L227 804Q241 839 261 857Q281 875 308 875Q321 875 334.50 870Q348 865 372 849Q391 836 400 832.50Q409 829 416 829Q429 829 438 839.50Q447 850 459 879L497 863Q481 823 461 803Q441 783 417 783Z"  horiz-adv-x="726" vert-adv-y="1000"  />

      
      <glyph glyph-name="uni0143" unicode="&#x0143;" d="M616 0L564 0L160 600L160 0L110 0L110 685L162 685L566 85L566 685L616 685L616 0M303 755L281 786L435 907L467 861L303 755Z"  horiz-adv-x="726" vert-adv-y="1000"  />

      
      <glyph glyph-name="uni0147" unicode="&#x0147;" d="M616 0L564 0L160 600L160 0L110 0L110 685L162 685L566 85L566 685L616 685L616 0M481 905L507 873L363 754L219 873L245 905L364 815L481 905Z"  horiz-adv-x="726" vert-adv-y="1000"  />

      
      <glyph glyph-name="uni0145" unicode="&#x0145;" d="M616 0L564 0L160 600L160 0L110 0L110 685L162 685L566 85L566 685L616 685L616 0M361-59Q377-59 389-72Q401-85 401-102Q401-110 399-118.50Q397-127 394-134L346-235L309-235L344-135Q332-128 325.50-119Q319-110 319-99Q319-83 331.50-71Q344-59 361-59Z"  horiz-adv-x="726" vert-adv-y="1000"  />

      
      <glyph glyph-name="uni014A" unicode="&#x014A;" d="M566 85L566 685L616 685L616-64Q616-129 580.50-169.50Q545-210 487-210Q458-210 429.50-198Q401-186 379-165L410-129Q428-145 448.50-154Q469-163 487-163Q523-163 543.50-135.50Q564-108 564-59L564 0L160 600L160 0L110 0L110 685L162 685L566 85Z"  horiz-adv-x="726" vert-adv-y="1000"  />

      
      <glyph glyph-name="unid3" unicode="&#xd3;" d="M62 342Q62 493 157.50 594Q253 695 395 695Q537 695 632.50 594Q728 493 728 342Q728 192 632.50 91Q537-10 395-10Q253-10 157.50 91Q62 192 62 342M674 342Q674 473 594.50 559.50Q515 646 395 646Q275 646 195.50 559.50Q116 473 116 342Q116 212 195.50 125.50Q275 39 395 39Q515 39 594.50 125.50Q674 212 674 342M324 755L302 786L456 907L488 861L324 755Z"  horiz-adv-x="790" vert-adv-y="1000"  />

      
      <glyph glyph-name="unid4" unicode="&#xd4;" d="M62 342Q62 493 157.50 594Q253 695 395 695Q537 695 632.50 594Q728 493 728 342Q728 192 632.50 91Q537-10 395-10Q253-10 157.50 91Q62 192 62 342M674 342Q674 473 594.50 559.50Q515 646 395 646Q275 646 195.50 559.50Q116 473 116 342Q116 212 195.50 125.50Q275 39 395 39Q515 39 594.50 125.50Q674 212 674 342M394 905L538 786L512 754L393 844L276 754L250 786L394 905Z"  horiz-adv-x="790" vert-adv-y="1000"  />

      
      <glyph glyph-name="unid6" unicode="&#xd6;" d="M62 342Q62 493 157.50 594Q253 695 395 695Q537 695 632.50 594Q728 493 728 342Q728 192 632.50 91Q537-10 395-10Q253-10 157.50 91Q62 192 62 342M674 342Q674 473 594.50 559.50Q515 646 395 646Q275 646 195.50 559.50Q116 473 116 342Q116 212 195.50 125.50Q275 39 395 39Q515 39 594.50 125.50Q674 212 674 342M349 833Q349 817 337.50 805.50Q326 794 310 794Q294 794 282.50 805.50Q271 817 271 833Q271 849 282.50 860.50Q294 872 310 872Q326 872 337.50 860.50Q349 849 349 833M517 833Q517 817 505.50 805.50Q494 794 478 794Q462 794 450.50 805.50Q439 817 439 833Q439 849 450.50 860.50Q462 872 478 872Q494 872 505.50 860.50Q517 849 517 833Z"  horiz-adv-x="790" vert-adv-y="1000"  />

      
      <glyph glyph-name="unid2" unicode="&#xd2;" d="M62 342Q62 493 157.50 594Q253 695 395 695Q537 695 632.50 594Q728 493 728 342Q728 192 632.50 91Q537-10 395-10Q253-10 157.50 91Q62 192 62 342M674 342Q674 473 594.50 559.50Q515 646 395 646Q275 646 195.50 559.50Q116 473 116 342Q116 212 195.50 125.50Q275 39 395 39Q515 39 594.50 125.50Q674 212 674 342M325 907L479 786L457 755L293 861L325 907Z"  horiz-adv-x="790" vert-adv-y="1000"  />

      
      <glyph glyph-name="unid5" unicode="&#xd5;" d="M62 342Q62 493 157.50 594Q253 695 395 695Q537 695 632.50 594Q728 493 728 342Q728 192 632.50 91Q537-10 395-10Q253-10 157.50 91Q62 192 62 342M674 342Q674 473 594.50 559.50Q515 646 395 646Q275 646 195.50 559.50Q116 473 116 342Q116 212 195.50 125.50Q275 39 395 39Q515 39 594.50 125.50Q674 212 674 342M449 783Q435 783 421 788.50Q407 794 382 810Q364 822 356 825.50Q348 829 341 829Q326 829 316 819.50Q306 810 297 786L259 804Q273 839 293 857Q313 875 340 875Q353 875 366.50 870Q380 865 404 849Q423 836 432 832.50Q441 829 448 829Q461 829 470 839.50Q479 850 491 879L529 863Q513 823 493 803Q473 783 449 783Z"  horiz-adv-x="790" vert-adv-y="1000"  />

      
      <glyph glyph-name="uni014E" unicode="&#x014E;" d="M62 342Q62 493 157.50 594Q253 695 395 695Q537 695 632.50 594Q728 493 728 342Q728 192 632.50 91Q537-10 395-10Q253-10 157.50 91Q62 192 62 342M674 342Q674 473 594.50 559.50Q515 646 395 646Q275 646 195.50 559.50Q116 473 116 342Q116 212 195.50 125.50Q275 39 395 39Q515 39 594.50 125.50Q674 212 674 342M394 797Q427 797 444 817.50Q461 838 461 876L461 888L509 888L509 866Q509 816 477 785Q445 754 394 754Q344 754 311.50 786Q279 818 279 868L279 888L327 888L327 878Q327 840 344.50 818.50Q362 797 394 797Z"  horiz-adv-x="790" vert-adv-y="1000"  />

      
      <glyph glyph-name="uni0150" unicode="&#x0150;" d="M62 342Q62 493 157.50 594Q253 695 395 695Q537 695 632.50 594Q728 493 728 342Q728 192 632.50 91Q537-10 395-10Q253-10 157.50 91Q62 192 62 342M674 342Q674 473 594.50 559.50Q515 646 395 646Q275 646 195.50 559.50Q116 473 116 342Q116 212 195.50 125.50Q275 39 395 39Q515 39 594.50 125.50Q674 212 674 342M303 753L276 775L382 934L425 904L303 753M457 753L430 775L536 934L579 904L457 753Z"  horiz-adv-x="790" vert-adv-y="1000"  />

      
      <glyph glyph-name="uni014C" unicode="&#x014C;" d="M62 342Q62 493 157.50 594Q253 695 395 695Q537 695 632.50 594Q728 493 728 342Q728 192 632.50 91Q537-10 395-10Q253-10 157.50 91Q62 192 62 342M674 342Q674 473 594.50 559.50Q515 646 395 646Q275 646 195.50 559.50Q116 473 116 342Q116 212 195.50 125.50Q275 39 395 39Q515 39 594.50 125.50Q674 212 674 342M279 847L509 847L509 800L279 800L279 847Z"  horiz-adv-x="790" vert-adv-y="1000"  />

      
      <glyph glyph-name="uni0154" unicode="&#x0154;" d="M162 0L110 0L110 685L305 685Q402 685 460.50 633.50Q519 582 519 497Q519 431 479.50 382Q440 333 377 316L559 0L499 0L321 309L162 309L162 0M465 497Q465 561 422.50 599.50Q380 638 310 638L162 638L162 356L310 356Q380 356 422.50 394.50Q465 433 465 497M239 755L217 786L371 907L403 861L239 755Z"  horiz-adv-x="600" vert-adv-y="1000"  />

      
      <glyph glyph-name="uni0158" unicode="&#x0158;" d="M162 0L110 0L110 685L305 685Q402 685 460.50 633.50Q519 582 519 497Q519 431 479.50 382Q440 333 377 316L559 0L499 0L321 309L162 309L162 0M465 497Q465 561 422.50 599.50Q380 638 310 638L162 638L162 356L310 356Q380 356 422.50 394.50Q465 433 465 497M398 905L424 873L280 754L136 873L162 905L281 815L398 905Z"  horiz-adv-x="600" vert-adv-y="1000"  />

      
      <glyph glyph-name="uni0156" unicode="&#x0156;" d="M162 0L110 0L110 685L305 685Q402 685 460.50 633.50Q519 582 519 497Q519 431 479.50 382Q440 333 377 316L559 0L499 0L321 309L162 309L162 0M465 497Q465 561 422.50 599.50Q380 638 310 638L162 638L162 356L310 356Q380 356 422.50 394.50Q465 433 465 497M318-59Q334-59 346-72Q358-85 358-102Q358-110 356-118.50Q354-127 351-134L303-235L266-235L301-135Q289-128 282.50-119Q276-110 276-99Q276-83 288.50-71Q301-59 318-59Z"  horiz-adv-x="600" vert-adv-y="1000"  />

      
      <glyph glyph-name="uni0160" unicode="&#x0160;" d="M291 646Q222 646 180.50 612.50Q139 579 139 522Q139 487 155.50 461Q172 435 208 415Q227 404 253.50 393.50Q280 383 334 365Q428 334 470 288.50Q512 243 512 177Q512 96 452.50 43Q393-10 303-10Q227-10 164 19Q101 48 49 106L83 145Q131 91 185 65Q239 39 303 39Q371 39 415.50 78Q460 117 460 177Q460 225 427 257.50Q394 290 303 320Q239 341 208.50 355Q178 369 156 385Q121 410 104 444Q87 478 87 522Q87 600 143.50 647.50Q200 695 291 695Q349 695 399 673Q449 651 495 606L462 568Q418 608 377 627Q336 646 291 646M398 905L424 873L280 754L136 873L162 905L281 815L398 905Z"  horiz-adv-x="566" vert-adv-y="1000"  />

      
      <glyph glyph-name="uni015A" unicode="&#x015A;" d="M291 646Q222 646 180.50 612.50Q139 579 139 522Q139 487 155.50 461Q172 435 208 415Q227 404 253.50 393.50Q280 383 334 365Q428 334 470 288.50Q512 243 512 177Q512 96 452.50 43Q393-10 303-10Q227-10 164 19Q101 48 49 106L83 145Q131 91 185 65Q239 39 303 39Q371 39 415.50 78Q460 117 460 177Q460 225 427 257.50Q394 290 303 320Q239 341 208.50 355Q178 369 156 385Q121 410 104 444Q87 478 87 522Q87 600 143.50 647.50Q200 695 291 695Q349 695 399 673Q449 651 495 606L462 568Q418 608 377 627Q336 646 291 646M219 755L197 786L351 907L383 861L219 755Z"  horiz-adv-x="566" vert-adv-y="1000"  />

      
      <glyph glyph-name="uni015E" unicode="&#x015E;" d="M374-132Q374-166 349-188Q324-210 284-210Q265-210 246.50-205.50Q228-201 209-192L223-152Q240-160 254.50-163.50Q269-167 284-167Q303-167 314.50-157.50Q326-148 326-132Q326-114 313-105.50Q300-97 273-97L243-71L263-8Q200-1 146.50 27.50Q93 56 49 106L83 145Q131 91 185 65Q239 39 303 39Q371 39 415.50 78Q460 117 460 177Q460 225 427 257.50Q394 290 303 320Q239 341 208.50 355Q178 369 156 385Q121 410 104 444Q87 478 87 522Q87 600 143.50 647.50Q200 695 291 695Q349 695 399 673Q449 651 495 606L462 568Q418 608 377 627Q336 646 291 646Q222 646 180.50 612.50Q139 579 139 522Q139 487 155.50 461Q172 435 208 415Q227 404 253.50 393.50Q280 383 334 365Q428 334 470 288.50Q512 243 512 177Q512 97 453 43.50Q394-10 306-10L291-55Q331-56 352.50-76Q374-96 374-132Z"  horiz-adv-x="566" vert-adv-y="1000"  />

      
      <glyph glyph-name="uni015C" unicode="&#x015C;" d="M291 646Q222 646 180.50 612.50Q139 579 139 522Q139 487 155.50 461Q172 435 208 415Q227 404 253.50 393.50Q280 383 334 365Q428 334 470 288.50Q512 243 512 177Q512 96 452.50 43Q393-10 303-10Q227-10 164 19Q101 48 49 106L83 145Q131 91 185 65Q239 39 303 39Q371 39 415.50 78Q460 117 460 177Q460 225 427 257.50Q394 290 303 320Q239 341 208.50 355Q178 369 156 385Q121 410 104 444Q87 478 87 522Q87 600 143.50 647.50Q200 695 291 695Q349 695 399 673Q449 651 495 606L462 568Q418 608 377 627Q336 646 291 646M276 905L420 786L394 754L275 844L158 754L132 786L276 905Z"  horiz-adv-x="566" vert-adv-y="1000"  />

      
      <glyph glyph-name="uni0218" unicode="&#x0218;" d="M291 646Q222 646 180.50 612.50Q139 579 139 522Q139 487 155.50 461Q172 435 208 415Q227 404 253.50 393.50Q280 383 334 365Q428 334 470 288.50Q512 243 512 177Q512 96 452.50 43Q393-10 303-10Q227-10 164 19Q101 48 49 106L83 145Q131 91 185 65Q239 39 303 39Q371 39 415.50 78Q460 117 460 177Q460 225 427 257.50Q394 290 303 320Q239 341 208.50 355Q178 369 156 385Q121 410 104 444Q87 478 87 522Q87 600 143.50 647.50Q200 695 291 695Q349 695 399 673Q449 651 495 606L462 568Q418 608 377 627Q336 646 291 646M287-59Q303-59 315-72Q327-85 327-102Q327-110 325-118.50Q323-127 320-134L272-235L235-235L270-135Q258-128 251.50-119Q245-110 245-99Q245-83 257.50-71Q270-59 287-59Z"  horiz-adv-x="566" vert-adv-y="1000"  />

      
      <glyph glyph-name="uni0166" unicode="&#x0166;" d="M238 638L20 638L20 685L508 685L508 638L290 638L290 390L429 390L429 345L290 345L290 0L238 0L238 345L99 345L99 390L238 390L238 638Z"  horiz-adv-x="528" vert-adv-y="1000"  />

      
      <glyph glyph-name="uni0164" unicode="&#x0164;" d="M238 638L20 638L20 685L508 685L508 638L290 638L290 0L238 0L238 638M378 905L404 873L260 754L116 873L142 905L261 815L378 905Z"  horiz-adv-x="528" vert-adv-y="1000"  />

      
      <glyph glyph-name="uni0162" unicode="&#x0162;" d="M238 638L20 638L20 685L508 685L508 638L290 638L290 0L238 0L238 638M263-59Q279-59 291-72Q303-85 303-102Q303-110 301-118.50Q299-127 296-134L248-235L211-235L246-135Q234-128 227.50-119Q221-110 221-99Q221-83 233.50-71Q246-59 263-59Z"  horiz-adv-x="528" vert-adv-y="1000"  />

      
      <glyph glyph-name="uni021A" unicode="&#x021A;" d="M238 638L20 638L20 685L508 685L508 638L290 638L290 0L238 0L238 638M263-59Q279-59 291-72Q303-85 303-102Q303-110 301-118.50Q299-127 296-134L248-235L211-235L246-135Q234-128 227.50-119Q221-110 221-99Q221-83 233.50-71Q246-59 263-59Z"  horiz-adv-x="528" vert-adv-y="1000"  />

      
      <glyph glyph-name="unida" unicode="&#xda;" d="M339-10Q226-10 160.50 63Q95 136 95 260L95 685L147 685L147 262Q147 156 197.50 97.50Q248 39 339 39Q430 39 480.50 97.50Q531 156 531 262L531 685L583 685L583 260Q583 136 517.50 63Q452-10 339-10M290 755L268 786L422 907L454 861L290 755Z"  horiz-adv-x="678" vert-adv-y="1000"  />

      
      <glyph glyph-name="unidb" unicode="&#xdb;" d="M339-10Q226-10 160.50 63Q95 136 95 260L95 685L147 685L147 262Q147 156 197.50 97.50Q248 39 339 39Q430 39 480.50 97.50Q531 156 531 262L531 685L583 685L583 260Q583 136 517.50 63Q452-10 339-10M339 905L483 786L457 754L338 844L221 754L195 786L339 905Z"  horiz-adv-x="678" vert-adv-y="1000"  />

      
      <glyph glyph-name="unidc" unicode="&#xdc;" d="M339-10Q226-10 160.50 63Q95 136 95 260L95 685L147 685L147 262Q147 156 197.50 97.50Q248 39 339 39Q430 39 480.50 97.50Q531 156 531 262L531 685L583 685L583 260Q583 136 517.50 63Q452-10 339-10M295 833Q295 817 283.50 805.50Q272 794 256 794Q240 794 228.50 805.50Q217 817 217 833Q217 849 228.50 860.50Q240 872 256 872Q272 872 283.50 860.50Q295 849 295 833M463 833Q463 817 451.50 805.50Q440 794 424 794Q408 794 396.50 805.50Q385 817 385 833Q385 849 396.50 860.50Q408 872 424 872Q440 872 451.50 860.50Q463 849 463 833Z"  horiz-adv-x="678" vert-adv-y="1000"  />

      
      <glyph glyph-name="unid9" unicode="&#xd9;" d="M339-10Q226-10 160.50 63Q95 136 95 260L95 685L147 685L147 262Q147 156 197.50 97.50Q248 39 339 39Q430 39 480.50 97.50Q531 156 531 262L531 685L583 685L583 260Q583 136 517.50 63Q452-10 339-10M270 907L424 786L402 755L238 861L270 907Z"  horiz-adv-x="678" vert-adv-y="1000"  />

      
      <glyph glyph-name="uni016C" unicode="&#x016C;" d="M339-10Q226-10 160.50 63Q95 136 95 260L95 685L147 685L147 262Q147 156 197.50 97.50Q248 39 339 39Q430 39 480.50 97.50Q531 156 531 262L531 685L583 685L583 260Q583 136 517.50 63Q452-10 339-10M339 797Q372 797 389 817.50Q406 838 406 876L406 888L454 888L454 866Q454 816 422 785Q390 754 339 754Q289 754 256.50 786Q224 818 224 868L224 888L272 888L272 878Q272 840 289.50 818.50Q307 797 339 797Z"  horiz-adv-x="678" vert-adv-y="1000"  />

      
      <glyph glyph-name="uni0170" unicode="&#x0170;" d="M339-10Q226-10 160.50 63Q95 136 95 260L95 685L147 685L147 262Q147 156 197.50 97.50Q248 39 339 39Q430 39 480.50 97.50Q531 156 531 262L531 685L583 685L583 260Q583 136 517.50 63Q452-10 339-10M247 753L220 775L326 934L369 904L247 753M401 753L374 775L480 934L523 904L401 753Z"  horiz-adv-x="678" vert-adv-y="1000"  />

      
      <glyph glyph-name="uni016A" unicode="&#x016A;" d="M339-10Q226-10 160.50 63Q95 136 95 260L95 685L147 685L147 262Q147 156 197.50 97.50Q248 39 339 39Q430 39 480.50 97.50Q531 156 531 262L531 685L583 685L583 260Q583 136 517.50 63Q452-10 339-10M224 847L454 847L454 800L224 800L224 847Z"  horiz-adv-x="678" vert-adv-y="1000"  />

      
      <glyph glyph-name="uni0172" unicode="&#x0172;" d="M406-196Q370-196 348.50-175Q327-154 327-118Q327-87 342-59.50Q357-32 389-5Q378-7 363.50-8.50Q349-10 339-10Q226-10 160.50 63Q95 136 95 260L95 685L147 685L147 262Q147 156 197.50 97.50Q248 39 339 39Q430 39 480.50 97.50Q531 156 531 262L531 685L583 685L583 260Q583 188 561 134Q539 80 495 42Q489 37 461.50 14Q434-9 420-23Q396-46 385.50-66.50Q375-87 375-108Q375-128 385.50-140Q396-152 414-152Q423-152 430-150.50Q437-149 444-146L457-186Q446-191 433-193.50Q420-196 406-196Z"  horiz-adv-x="678" vert-adv-y="1000"  />

      
      <glyph glyph-name="uni016E" unicode="&#x016E;" d="M339-10Q226-10 160.50 63Q95 136 95 260L95 685L147 685L147 262Q147 156 197.50 97.50Q248 39 339 39Q430 39 480.50 97.50Q531 156 531 262L531 685L583 685L583 260Q583 136 517.50 63Q452-10 339-10M243 833Q243 871 271 898.50Q299 926 339 926Q379 926 407 898.50Q435 871 435 833Q435 795 407 767.50Q379 740 339 740Q299 740 271 767.50Q243 795 243 833M392 833Q392 856 376.50 872Q361 888 339 888Q317 888 301.50 872Q286 856 286 833Q286 810 301.50 794Q317 778 339 778Q361 778 376.50 794Q392 810 392 833Z"  horiz-adv-x="678" vert-adv-y="1000"  />

      
      <glyph glyph-name="uni0168" unicode="&#x0168;" d="M339-10Q226-10 160.50 63Q95 136 95 260L95 685L147 685L147 262Q147 156 197.50 97.50Q248 39 339 39Q430 39 480.50 97.50Q531 156 531 262L531 685L583 685L583 260Q583 136 517.50 63Q452-10 339-10M394 783Q380 783 366 788.50Q352 794 327 810Q309 822 301 825.50Q293 829 286 829Q271 829 261 819.50Q251 810 242 786L204 804Q218 839 238 857Q258 875 285 875Q298 875 311.50 870Q325 865 349 849Q368 836 377 832.50Q386 829 393 829Q406 829 415 839.50Q424 850 436 879L474 863Q458 823 438 803Q418 783 394 783Z"  horiz-adv-x="678" vert-adv-y="1000"  />

      
      <glyph glyph-name="uni1E82" unicode="&#x1E82;" d="M660 0L609 0L474 347L339 0L288 0L25 685L80 685L317 66L449 410L342 685L396 685L476 473L556 685L606 685L501 416L636 68L870 685L923 685L660 0M414 755L392 786L546 907L578 861L414 755Z"  horiz-adv-x="948" vert-adv-y="1000"  />

      
      <glyph glyph-name="uni0174" unicode="&#x0174;" d="M660 0L609 0L474 347L339 0L288 0L25 685L80 685L317 66L449 410L342 685L396 685L476 473L556 685L606 685L501 416L636 68L870 685L923 685L660 0M474 905L618 786L592 754L473 844L356 754L330 786L474 905Z"  horiz-adv-x="948" vert-adv-y="1000"  />

      
      <glyph glyph-name="uni1E84" unicode="&#x1E84;" d="M660 0L609 0L474 347L339 0L288 0L25 685L80 685L317 66L449 410L342 685L396 685L476 473L556 685L606 685L501 416L636 68L870 685L923 685L660 0M429 833Q429 817 417.50 805.50Q406 794 390 794Q374 794 362.50 805.50Q351 817 351 833Q351 849 362.50 860.50Q374 872 390 872Q406 872 417.50 860.50Q429 849 429 833M597 833Q597 817 585.50 805.50Q574 794 558 794Q542 794 530.50 805.50Q519 817 519 833Q519 849 530.50 860.50Q542 872 558 872Q574 872 585.50 860.50Q597 849 597 833Z"  horiz-adv-x="948" vert-adv-y="1000"  />

      
      <glyph glyph-name="uni1E80" unicode="&#x1E80;" d="M660 0L609 0L474 347L339 0L288 0L25 685L80 685L317 66L449 410L342 685L396 685L476 473L556 685L606 685L501 416L636 68L870 685L923 685L660 0M404 907L558 786L536 755L372 861L404 907Z"  horiz-adv-x="948" vert-adv-y="1000"  />

      
      <glyph glyph-name="unidd" unicode="&#xdd;" d="M494 685L549 685L311 303L311 0L259 0L259 303L20 685L78 685L286 352L494 685M241 755L219 786L373 907L405 861L241 755Z"  horiz-adv-x="569" vert-adv-y="1000"  />

      
      <glyph glyph-name="uni0178" unicode="&#x0178;" d="M494 685L549 685L311 303L311 0L259 0L259 303L20 685L78 685L286 352L494 685M239 833Q239 817 227.50 805.50Q216 794 200 794Q184 794 172.50 805.50Q161 817 161 833Q161 849 172.50 860.50Q184 872 200 872Q216 872 227.50 860.50Q239 849 239 833M407 833Q407 817 395.50 805.50Q384 794 368 794Q352 794 340.50 805.50Q329 817 329 833Q329 849 340.50 860.50Q352 872 368 872Q384 872 395.50 860.50Q407 849 407 833Z"  horiz-adv-x="569" vert-adv-y="1000"  />

      
      <glyph glyph-name="uni0176" unicode="&#x0176;" d="M494 685L549 685L311 303L311 0L259 0L259 303L20 685L78 685L286 352L494 685M281 905L425 786L399 754L280 844L163 754L137 786L281 905Z"  horiz-adv-x="569" vert-adv-y="1000"  />

      
      <glyph glyph-name="uni1EF2" unicode="&#x1EF2;" d="M494 685L549 685L311 303L311 0L259 0L259 303L20 685L78 685L286 352L494 685M201 907L355 786L333 755L169 861L201 907Z"  horiz-adv-x="569" vert-adv-y="1000"  />

      
      <glyph glyph-name="uni017D" unicode="&#x017D;" d="M110 47L509 47L509 0L45 0L45 37L434 638L58 638L58 685L499 685L499 648L110 47M395 905L421 873L277 754L133 873L159 905L278 815L395 905Z"  horiz-adv-x="554" vert-adv-y="1000"  />

      
      <glyph glyph-name="uni0179" unicode="&#x0179;" d="M110 47L509 47L509 0L45 0L45 37L434 638L58 638L58 685L499 685L499 648L110 47M227 755L205 786L359 907L391 861L227 755Z"  horiz-adv-x="554" vert-adv-y="1000"  />

      
      <glyph glyph-name="uni017B" unicode="&#x017B;" d="M110 47L509 47L509 0L45 0L45 37L434 638L58 638L58 685L499 685L499 648L110 47M321 833Q321 815 308 802Q295 789 277 789Q259 789 246 802Q233 815 233 833Q233 851 246 864Q259 877 277 877Q295 877 308 864Q321 851 321 833Z"  horiz-adv-x="554" vert-adv-y="1000"  />

      
      <glyph glyph-name="unie1" unicode="&#xe1;" d="M492 0L452 0L444 74Q415 34 372 12Q329-10 279-10Q184-10 120 56.50Q56 123 56 220Q56 318 120 384Q184 450 279 450Q329 450 372 428Q415 406 444 366L452 440L492 440L492 0M108 220Q108 142 157 89Q206 36 279 36Q351 36 400.50 89Q450 142 450 220Q450 298 400.50 351Q351 404 279 404Q206 404 157 351Q108 298 108 220M220 510L198 541L352 662L384 616L220 510Z"  horiz-adv-x="582" vert-adv-y="1000"  />

      
      <glyph glyph-name="unie2" unicode="&#xe2;" d="M492 0L452 0L444 74Q415 34 372 12Q329-10 279-10Q184-10 120 56.50Q56 123 56 220Q56 318 120 384Q184 450 279 450Q329 450 372 428Q415 406 444 366L452 440L492 440L492 0M108 220Q108 142 157 89Q206 36 279 36Q351 36 400.50 89Q450 142 450 220Q450 298 400.50 351Q351 404 279 404Q206 404 157 351Q108 298 108 220M280 660L424 541L398 509L279 599L162 509L136 541L280 660Z"  horiz-adv-x="582" vert-adv-y="1000"  />

      
      <glyph glyph-name="unie4" unicode="&#xe4;" d="M492 0L452 0L444 74Q415 34 372 12Q329-10 279-10Q184-10 120 56.50Q56 123 56 220Q56 318 120 384Q184 450 279 450Q329 450 372 428Q415 406 444 366L452 440L492 440L492 0M108 220Q108 142 157 89Q206 36 279 36Q351 36 400.50 89Q450 142 450 220Q450 298 400.50 351Q351 404 279 404Q206 404 157 351Q108 298 108 220M235 588Q235 572 223.50 560.50Q212 549 196 549Q180 549 168.50 560.50Q157 572 157 588Q157 604 168.50 615.50Q180 627 196 627Q212 627 223.50 615.50Q235 604 235 588M403 588Q403 572 391.50 560.50Q380 549 364 549Q348 549 336.50 560.50Q325 572 325 588Q325 604 336.50 615.50Q348 627 364 627Q380 627 391.50 615.50Q403 604 403 588Z"  horiz-adv-x="582" vert-adv-y="1000"  />

      
      <glyph glyph-name="unie0" unicode="&#xe0;" d="M492 0L452 0L444 74Q415 34 372 12Q329-10 279-10Q184-10 120 56.50Q56 123 56 220Q56 318 120 384Q184 450 279 450Q329 450 372 428Q415 406 444 366L452 440L492 440L492 0M108 220Q108 142 157 89Q206 36 279 36Q351 36 400.50 89Q450 142 450 220Q450 298 400.50 351Q351 404 279 404Q206 404 157 351Q108 298 108 220M220 662L374 541L352 510L188 616L220 662Z"  horiz-adv-x="582" vert-adv-y="1000"  />

      
      <glyph glyph-name="unie5" unicode="&#xe5;" d="M492 0L452 0L444 74Q415 34 372 12Q329-10 279-10Q184-10 120 56.50Q56 123 56 220Q56 318 120 384Q184 450 279 450Q329 450 372 428Q415 406 444 366L452 440L492 440L492 0M108 220Q108 142 157 89Q206 36 279 36Q351 36 400.50 89Q450 142 450 220Q450 298 400.50 351Q351 404 279 404Q206 404 157 351Q108 298 108 220M184 588Q184 626 212 653.50Q240 681 280 681Q320 681 348 653.50Q376 626 376 588Q376 550 348 522.50Q320 495 280 495Q240 495 212 522.50Q184 550 184 588M333 588Q333 611 317.50 627Q302 643 280 643Q258 643 242.50 627Q227 611 227 588Q227 565 242.50 549Q258 533 280 533Q302 533 317.50 549Q333 565 333 588Z"  horiz-adv-x="582" vert-adv-y="1000"  />

      
      <glyph glyph-name="unie3" unicode="&#xe3;" d="M492 0L452 0L444 74Q415 34 372 12Q329-10 279-10Q184-10 120 56.50Q56 123 56 220Q56 318 120 384Q184 450 279 450Q329 450 372 428Q415 406 444 366L452 440L492 440L492 0M108 220Q108 142 157 89Q206 36 279 36Q351 36 400.50 89Q450 142 450 220Q450 298 400.50 351Q351 404 279 404Q206 404 157 351Q108 298 108 220M338 538Q324 538 310 543.50Q296 549 271 565Q253 577 245 580.50Q237 584 230 584Q215 584 205 574.50Q195 565 186 541L148 559Q162 594 182 612Q202 630 229 630Q242 630 255.50 625Q269 620 293 604Q312 591 321 587.50Q330 584 337 584Q350 584 359 594.50Q368 605 380 634L418 618Q402 578 382 558Q362 538 338 538Z"  horiz-adv-x="582" vert-adv-y="1000"  />

      
      <glyph glyph-name="uni0103" unicode="&#x0103;" d="M492 0L452 0L444 74Q415 34 372 12Q329-10 279-10Q184-10 120 56.50Q56 123 56 220Q56 318 120 384Q184 450 279 450Q329 450 372 428Q415 406 444 366L452 440L492 440L492 0M108 220Q108 142 157 89Q206 36 279 36Q351 36 400.50 89Q450 142 450 220Q450 298 400.50 351Q351 404 279 404Q206 404 157 351Q108 298 108 220M283 552Q316 552 333 572.50Q350 593 350 631L350 643L398 643L398 621Q398 571 366 540Q334 509 283 509Q233 509 200.50 541Q168 573 168 623L168 643L216 643L216 633Q216 595 233.50 573.50Q251 552 283 552Z"  horiz-adv-x="582" vert-adv-y="1000"  />

      
      <glyph glyph-name="uni0101" unicode="&#x0101;" d="M492 0L452 0L444 74Q415 34 372 12Q329-10 279-10Q184-10 120 56.50Q56 123 56 220Q56 318 120 384Q184 450 279 450Q329 450 372 428Q415 406 444 366L452 440L492 440L492 0M108 220Q108 142 157 89Q206 36 279 36Q351 36 400.50 89Q450 142 450 220Q450 298 400.50 351Q351 404 279 404Q206 404 157 351Q108 298 108 220M168 602L398 602L398 555L168 555L168 602Z"  horiz-adv-x="582" vert-adv-y="1000"  />

      
      <glyph glyph-name="uni0105" unicode="&#x0105;" d="M485-146L498-186Q487-191 474-193.50Q461-196 447-196Q411-196 389.50-175Q368-154 368-118Q368-83 388-50.50Q408-18 445 8L451 12L444 74Q415 34 372 12Q329-10 279-10Q184-10 120 56.50Q56 123 56 220Q56 318 120 384Q184 450 279 450Q329 450 372 428Q415 406 444 366L452 440L492 440L492 0Q455-25 435.50-52.50Q416-80 416-108Q416-128 426.50-140Q437-152 455-152Q464-152 471-150.50Q478-149 485-146M108 220Q108 142 157 89Q206 36 279 36Q351 36 400.50 89Q450 142 450 220Q450 298 400.50 351Q351 404 279 404Q206 404 157 351Q108 298 108 220Z"  horiz-adv-x="582" vert-adv-y="1000"  />

      
      <glyph glyph-name="unie7" unicode="&#xe7;" d="M359-132Q359-166 334-188Q309-210 269-210Q250-210 231.50-205.50Q213-201 194-192L208-152Q225-160 239.50-163.50Q254-167 269-167Q288-167 299.50-157.50Q311-148 311-132Q311-114 298-105.50Q285-97 258-97L228-71L248-8Q163 4 109.50 67.50Q56 131 56 220Q56 319 120.50 384.50Q185 450 282 450Q327 450 366 435Q405 420 438 389L406 355Q378 380 347.50 392Q317 404 282 404Q207 404 157.50 351.50Q108 299 108 220Q108 141 157.50 88.50Q207 36 282 36Q319 36 353 51Q387 66 416 95L448 61Q415 27 375.50 9.50Q336-8 291-10L276-55Q316-56 337.50-76Q359-96 359-132Z"  horiz-adv-x="481" vert-adv-y="1000"  />

      
      <glyph glyph-name="uni0107" unicode="&#x0107;" d="M108 220Q108 141 157.50 88.50Q207 36 282 36Q319 36 353 51Q387 66 416 95L448 61Q413 25 371.50 7.50Q330-10 282-10Q185-10 120.50 55.50Q56 121 56 220Q56 319 120.50 384.50Q185 450 282 450Q327 450 366 435Q405 420 438 389L406 355Q378 380 347.50 392Q317 404 282 404Q207 404 157.50 351.50Q108 299 108 220M182 510L160 541L314 662L346 616L182 510Z"  horiz-adv-x="481" vert-adv-y="1000"  />

      
      <glyph glyph-name="uni010D" unicode="&#x010D;" d="M108 220Q108 141 157.50 88.50Q207 36 282 36Q319 36 353 51Q387 66 416 95L448 61Q413 25 371.50 7.50Q330-10 282-10Q185-10 120.50 55.50Q56 121 56 220Q56 319 120.50 384.50Q185 450 282 450Q327 450 366 435Q405 420 438 389L406 355Q378 380 347.50 392Q317 404 282 404Q207 404 157.50 351.50Q108 299 108 220M390 660L416 628L272 509L128 628L154 660L273 570L390 660Z"  horiz-adv-x="481" vert-adv-y="1000"  />

      
      <glyph glyph-name="uni0109" unicode="&#x0109;" d="M108 220Q108 141 157.50 88.50Q207 36 282 36Q319 36 353 51Q387 66 416 95L448 61Q413 25 371.50 7.50Q330-10 282-10Q185-10 120.50 55.50Q56 121 56 220Q56 319 120.50 384.50Q185 450 282 450Q327 450 366 435Q405 420 438 389L406 355Q378 380 347.50 392Q317 404 282 404Q207 404 157.50 351.50Q108 299 108 220M272 660L416 541L390 509L271 599L154 509L128 541L272 660Z"  horiz-adv-x="481" vert-adv-y="1000"  />

      
      <glyph glyph-name="uni010B" unicode="&#x010B;" d="M108 220Q108 141 157.50 88.50Q207 36 282 36Q319 36 353 51Q387 66 416 95L448 61Q413 25 371.50 7.50Q330-10 282-10Q185-10 120.50 55.50Q56 121 56 220Q56 319 120.50 384.50Q185 450 282 450Q327 450 366 435Q405 420 438 389L406 355Q378 380 347.50 392Q317 404 282 404Q207 404 157.50 351.50Q108 299 108 220M316 588Q316 570 303 557Q290 544 272 544Q254 544 241 557Q228 570 228 588Q228 606 241 619Q254 632 272 632Q290 632 303 619Q316 606 316 588Z"  horiz-adv-x="481" vert-adv-y="1000"  />

      
      <glyph glyph-name="uni010F" unicode="&#x010F;" d="M492 0L452 0L444 74Q415 34 372 12Q329-10 279-10Q184-10 120 56.50Q56 123 56 220Q56 318 120 384Q184 450 279 450Q328 450 370.50 429Q413 408 442 369L442 705L492 705L492 0M108 220Q108 142 157 89Q206 36 279 36Q351 36 400.50 89Q450 142 450 220Q450 298 400.50 351Q351 404 279 404Q206 404 157 351Q108 298 108 220M612 705L602 529L562 529L562 705L612 705Z"  horiz-adv-x="599" vert-adv-y="1000"  />

      
      <glyph glyph-name="uni0111" unicode="&#x0111;" d="M492 0L452 0L444 74Q415 34 372 12Q329-10 279-10Q184-10 120 56.50Q56 123 56 220Q56 318 120 384Q184 450 279 450Q328 450 370.50 429Q413 408 442 369L442 565L277 565L277 610L442 610L442 705L492 705L492 610L567 610L567 565L492 565L492 0M108 220Q108 142 157 89Q206 36 279 36Q351 36 400.50 89Q450 142 450 220Q450 298 400.50 351Q351 404 279 404Q206 404 157 351Q108 298 108 220Z"  horiz-adv-x="582" vert-adv-y="1000"  />

      
      <glyph glyph-name="unie9" unicode="&#xe9;" d="M416 91L449 58Q415 23 374.50 6.50Q334-10 283-10Q186-10 121.50 55.50Q57 121 57 220Q57 318 119 384Q181 450 273 450Q362 450 420.50 384.50Q479 319 479 220Q479 215 479 211.50Q479 208 478 204L108 204Q113 131 162 83.50Q211 36 283 36Q322 36 355.50 50Q389 64 416 91M273 404Q209 404 163.50 360.50Q118 317 109 249L427 249Q419 318 376 361Q333 404 273 404M199 510L177 541L331 662L363 616L199 510Z"  horiz-adv-x="529" vert-adv-y="1000"  />

      
      <glyph glyph-name="uniea" unicode="&#xea;" d="M416 91L449 58Q415 23 374.50 6.50Q334-10 283-10Q186-10 121.50 55.50Q57 121 57 220Q57 318 119 384Q181 450 273 450Q362 450 420.50 384.50Q479 319 479 220Q479 215 479 211.50Q479 208 478 204L108 204Q113 131 162 83.50Q211 36 283 36Q322 36 355.50 50Q389 64 416 91M273 404Q209 404 163.50 360.50Q118 317 109 249L427 249Q419 318 376 361Q333 404 273 404M274 660L418 541L392 509L273 599L156 509L130 541L274 660Z"  horiz-adv-x="529" vert-adv-y="1000"  />

      
      <glyph glyph-name="unieb" unicode="&#xeb;" d="M416 91L449 58Q415 23 374.50 6.50Q334-10 283-10Q186-10 121.50 55.50Q57 121 57 220Q57 318 119 384Q181 450 273 450Q362 450 420.50 384.50Q479 319 479 220Q479 215 479 211.50Q479 208 478 204L108 204Q113 131 162 83.50Q211 36 283 36Q322 36 355.50 50Q389 64 416 91M273 404Q209 404 163.50 360.50Q118 317 109 249L427 249Q419 318 376 361Q333 404 273 404M229 588Q229 572 217.50 560.50Q206 549 190 549Q174 549 162.50 560.50Q151 572 151 588Q151 604 162.50 615.50Q174 627 190 627Q206 627 217.50 615.50Q229 604 229 588M397 588Q397 572 385.50 560.50Q374 549 358 549Q342 549 330.50 560.50Q319 572 319 588Q319 604 330.50 615.50Q342 627 358 627Q374 627 385.50 615.50Q397 604 397 588Z"  horiz-adv-x="529" vert-adv-y="1000"  />

      
      <glyph glyph-name="unie8" unicode="&#xe8;" d="M416 91L449 58Q415 23 374.50 6.50Q334-10 283-10Q186-10 121.50 55.50Q57 121 57 220Q57 318 119 384Q181 450 273 450Q362 450 420.50 384.50Q479 319 479 220Q479 215 479 211.50Q479 208 478 204L108 204Q113 131 162 83.50Q211 36 283 36Q322 36 355.50 50Q389 64 416 91M273 404Q209 404 163.50 360.50Q118 317 109 249L427 249Q419 318 376 361Q333 404 273 404M204 662L358 541L336 510L172 616L204 662Z"  horiz-adv-x="529" vert-adv-y="1000"  />

      
      <glyph glyph-name="uni0115" unicode="&#x0115;" d="M416 91L449 58Q415 23 374.50 6.50Q334-10 283-10Q186-10 121.50 55.50Q57 121 57 220Q57 318 119 384Q181 450 273 450Q362 450 420.50 384.50Q479 319 479 220Q479 215 479 211.50Q479 208 478 204L108 204Q113 131 162 83.50Q211 36 283 36Q322 36 355.50 50Q389 64 416 91M273 404Q209 404 163.50 360.50Q118 317 109 249L427 249Q419 318 376 361Q333 404 273 404M274 552Q307 552 324 572.50Q341 593 341 631L341 643L389 643L389 621Q389 571 357 540Q325 509 274 509Q224 509 191.50 541Q159 573 159 623L159 643L207 643L207 633Q207 595 224.50 573.50Q242 552 274 552Z"  horiz-adv-x="529" vert-adv-y="1000"  />

      
      <glyph glyph-name="uni011B" unicode="&#x011B;" d="M416 91L449 58Q415 23 374.50 6.50Q334-10 283-10Q186-10 121.50 55.50Q57 121 57 220Q57 318 119 384Q181 450 273 450Q362 450 420.50 384.50Q479 319 479 220Q479 215 479 211.50Q479 208 478 204L108 204Q113 131 162 83.50Q211 36 283 36Q322 36 355.50 50Q389 64 416 91M273 404Q209 404 163.50 360.50Q118 317 109 249L427 249Q419 318 376 361Q333 404 273 404M392 660L418 628L274 509L130 628L156 660L275 570L392 660Z"  horiz-adv-x="529" vert-adv-y="1000"  />

      
      <glyph glyph-name="uni0117" unicode="&#x0117;" d="M416 91L449 58Q415 23 374.50 6.50Q334-10 283-10Q186-10 121.50 55.50Q57 121 57 220Q57 318 119 384Q181 450 273 450Q362 450 420.50 384.50Q479 319 479 220Q479 215 479 211.50Q479 208 478 204L108 204Q113 131 162 83.50Q211 36 283 36Q322 36 355.50 50Q389 64 416 91M273 404Q209 404 163.50 360.50Q118 317 109 249L427 249Q419 318 376 361Q333 404 273 404M308 588Q308 570 295 557Q282 544 264 544Q246 544 233 557Q220 570 220 588Q220 606 233 619Q246 632 264 632Q282 632 295 619Q308 606 308 588Z"  horiz-adv-x="529" vert-adv-y="1000"  />

      
      <glyph glyph-name="uni0113" unicode="&#x0113;" d="M416 91L449 58Q415 23 374.50 6.50Q334-10 283-10Q186-10 121.50 55.50Q57 121 57 220Q57 318 119 384Q181 450 273 450Q362 450 420.50 384.50Q479 319 479 220Q479 215 479 211.50Q479 208 478 204L108 204Q113 131 162 83.50Q211 36 283 36Q322 36 355.50 50Q389 64 416 91M273 404Q209 404 163.50 360.50Q118 317 109 249L427 249Q419 318 376 361Q333 404 273 404M159 602L389 602L389 555L159 555L159 602Z"  horiz-adv-x="529" vert-adv-y="1000"  />

      
      <glyph glyph-name="uni0119" unicode="&#x0119;" d="M337-108Q337-128 347.50-140Q358-152 376-152Q387-152 399-148Q411-144 423-137L439-175Q424-185 406.50-190.50Q389-196 368-196Q332-196 310.50-175Q289-154 289-118Q289-92 301-63Q313-34 335-5Q320-8 309-9Q298-10 283-10Q186-10 121.50 55.50Q57 121 57 220Q57 318 119 384Q181 450 273 450Q362 450 420.50 384.50Q479 319 479 220Q479 215 479 211.50Q479 208 478 204L108 204Q113 131 162 83.50Q211 36 283 36Q322 36 355.50 50Q389 64 416 91L449 58L431 40Q382-9 359.50-44Q337-79 337-108M273 404Q209 404 163.50 360.50Q118 317 109 249L427 249Q419 318 376 361Q333 404 273 404Z"  horiz-adv-x="529" vert-adv-y="1000"  />

      
      <glyph glyph-name="uni011F" unicode="&#x011F;" d="M519 0Q519-93 454.50-151.50Q390-210 287-210Q222-210 164-186.50Q106-163 55-116L88-81Q133-122 183-143Q233-164 287-164Q368-164 418.50-118.50Q469-73 469 0Q469 28 463 52.50Q457 77 444 101Q415 58 369 34Q323 10 268 10Q178 10 116.50 73.50Q55 137 55 230Q55 323 116.50 386.50Q178 450 268 450Q318 450 361 428Q404 406 433 366L441 440L481 440L481 136L491 115Q504 87 511.50 57Q519 27 519 0M107 230Q107 156 153 106Q199 56 268 56Q341 56 390 103Q439 150 439 220Q439 298 389.50 351Q340 404 268 404Q199 404 153 354Q107 304 107 230M270 552Q303 552 320 572.50Q337 593 337 631L337 643L385 643L385 621Q385 571 353 540Q321 509 270 509Q220 509 187.50 541Q155 573 155 623L155 643L203 643L203 633Q203 595 220.50 573.50Q238 552 270 552Z"  horiz-adv-x="581" vert-adv-y="1000"  />

      
      <glyph glyph-name="uni011D" unicode="&#x011D;" d="M519 0Q519-93 454.50-151.50Q390-210 287-210Q222-210 164-186.50Q106-163 55-116L88-81Q133-122 183-143Q233-164 287-164Q368-164 418.50-118.50Q469-73 469 0Q469 28 463 52.50Q457 77 444 101Q415 58 369 34Q323 10 268 10Q178 10 116.50 73.50Q55 137 55 230Q55 323 116.50 386.50Q178 450 268 450Q318 450 361 428Q404 406 433 366L441 440L481 440L481 136L491 115Q504 87 511.50 57Q519 27 519 0M107 230Q107 156 153 106Q199 56 268 56Q341 56 390 103Q439 150 439 220Q439 298 389.50 351Q340 404 268 404Q199 404 153 354Q107 304 107 230M270 660L414 541L388 509L269 599L152 509L126 541L270 660Z"  horiz-adv-x="581" vert-adv-y="1000"  />

      
      <glyph glyph-name="uni0123" unicode="&#x0123;" d="M519 0Q519-93 454.50-151.50Q390-210 287-210Q222-210 164-186.50Q106-163 55-116L88-81Q133-122 183-143Q233-164 287-164Q368-164 418.50-118.50Q469-73 469 0Q469 28 463 52.50Q457 77 444 101Q415 58 369 34Q323 10 268 10Q178 10 116.50 73.50Q55 137 55 230Q55 323 116.50 386.50Q178 450 268 450Q318 450 361 428Q404 406 433 366L441 440L481 440L481 136L491 115Q504 87 511.50 57Q519 27 519 0M107 230Q107 156 153 106Q199 56 268 56Q341 56 390 103Q439 150 439 220Q439 298 389.50 351Q340 404 268 404Q199 404 153 354Q107 304 107 230M274 517Q258 517 246 530Q234 543 234 560Q234 568 236 576.50Q238 585 241 592L279 673L316 673L291 593Q303 586 309.50 577Q316 568 316 557Q316 541 303.50 529Q291 517 274 517Z"  horiz-adv-x="581" vert-adv-y="1000"  />

      
      <glyph glyph-name="uni0121" unicode="&#x0121;" d="M519 0Q519-93 454.50-151.50Q390-210 287-210Q222-210 164-186.50Q106-163 55-116L88-81Q133-122 183-143Q233-164 287-164Q368-164 418.50-118.50Q469-73 469 0Q469 28 463 52.50Q457 77 444 101Q415 58 369 34Q323 10 268 10Q178 10 116.50 73.50Q55 137 55 230Q55 323 116.50 386.50Q178 450 268 450Q318 450 361 428Q404 406 433 366L441 440L481 440L481 136L491 115Q504 87 511.50 57Q519 27 519 0M107 230Q107 156 153 106Q199 56 268 56Q341 56 390 103Q439 150 439 220Q439 298 389.50 351Q340 404 268 404Q199 404 153 354Q107 304 107 230M314 588Q314 570 301 557Q288 544 270 544Q252 544 239 557Q226 570 226 588Q226 606 239 619Q252 632 270 632Q288 632 301 619Q314 606 314 588Z"  horiz-adv-x="581" vert-adv-y="1000"  />

      
      <glyph glyph-name="uni0127" unicode="&#x0127;" d="M290 404Q249 404 209 378Q169 352 140 305L140 0L90 0L90 565L15 565L15 610L90 610L90 705L140 705L140 610L305 610L305 565L140 565L140 369Q170 407 211 428.50Q252 450 295 450Q375 450 419 400Q463 350 463 259L463 0L413 0L413 256Q413 324 380 364Q347 404 290 404Z"  horiz-adv-x="545" vert-adv-y="1000"  />

      
      <glyph glyph-name="uni0125" unicode="&#x0125;" d="M290 404Q249 404 209 378Q169 352 140 305L140 0L90 0L90 705L140 705L140 369Q170 407 211 428.50Q252 450 295 450Q375 450 419 400Q463 350 463 259L463 0L413 0L413 256Q413 324 380 364Q347 404 290 404M261 910L405 791L379 759L260 849L143 759L117 791L261 910Z"  horiz-adv-x="545" vert-adv-y="1000"  />

      
      <glyph glyph-name="unied" unicode="&#xed;" d="M90 440L140 440L140 0L90 0L90 440M45 510L23 541L177 662L209 616L45 510Z"  horiz-adv-x="230" vert-adv-y="1000"  />

      
      <glyph glyph-name="uniee" unicode="&#xee;" d="M90 440L140 440L140 0L90 0L90 440M115 660L259 541L233 509L114 599L-3 509L-29 541L115 660Z"  horiz-adv-x="230" vert-adv-y="1000"  />

      
      <glyph glyph-name="unief" unicode="&#xef;" d="M90 440L140 440L140 0L90 0L90 440M70 588Q70 572 58.50 560.50Q47 549 31 549Q15 549 3.50 560.50Q-8 572-8 588Q-8 604 3.50 615.50Q15 627 31 627Q47 627 58.50 615.50Q70 604 70 588M238 588Q238 572 226.50 560.50Q215 549 199 549Q183 549 171.50 560.50Q160 572 160 588Q160 604 171.50 615.50Q183 627 199 627Q215 627 226.50 615.50Q238 604 238 588Z"  horiz-adv-x="230" vert-adv-y="1000"  />

      
      <glyph glyph-name="uniec" unicode="&#xec;" d="M90 440L140 440L140 0L90 0L90 440M54 662L208 541L186 510L22 616L54 662Z"  horiz-adv-x="230" vert-adv-y="1000"  />

      
      <glyph glyph-name="uni012D" unicode="&#x012D;" d="M90 440L140 440L140 0L90 0L90 440M115 552Q148 552 165 572.50Q182 593 182 631L182 643L230 643L230 621Q230 571 198 540Q166 509 115 509Q65 509 32.50 541Q0 573 0 623L0 643L48 643L48 633Q48 595 65.50 573.50Q83 552 115 552Z"  horiz-adv-x="230" vert-adv-y="1000"  />

      
      <glyph glyph-name="uni012B" unicode="&#x012B;" d="M90 440L140 440L140 0L90 0L90 440M0 602L230 602L230 555L0 555L0 602Z"  horiz-adv-x="230" vert-adv-y="1000"  />

      
      <glyph glyph-name="uni012F" unicode="&#x012F;" d="M155 584Q155 568 143.50 556Q132 544 115 544Q99 544 87 556Q75 568 75 584Q75 601 87 612.50Q99 624 115 624Q132 624 143.50 612.50Q155 601 155 584M133-146L146-186Q135-191 122-193.50Q109-196 95-196Q59-196 37.50-175Q16-154 16-118Q16-83 35-52Q54-21 90 4L90 440L140 440L140 0Q103-25 83.50-52.50Q64-80 64-108Q64-128 74.50-140Q85-152 103-152Q112-152 119-150.50Q126-149 133-146Z"  horiz-adv-x="230" vert-adv-y="1000"  />

      
      <glyph glyph-name="uni0129" unicode="&#x0129;" d="M90 440L140 440L140 0L90 0L90 440M169 538Q155 538 141 543.50Q127 549 102 565Q84 577 76 580.50Q68 584 61 584Q46 584 36 574.50Q26 565 17 541L-21 559Q-7 594 13 612Q33 630 60 630Q73 630 86.50 625Q100 620 124 604Q143 591 152 587.50Q161 584 168 584Q181 584 190 594.50Q199 605 211 634L249 618Q233 578 213 558Q193 538 169 538Z"  horiz-adv-x="230" vert-adv-y="1000"  />

      
      <glyph glyph-name="uni0135" unicode="&#x0135;" d="M11-165Q47-165 68.50-136.50Q90-108 90-59L90 440L140 440L140-64Q140-129 104.50-169.50Q69-210 11-210Q-18-210-46.50-198Q-75-186-97-165L-66-131Q-48-147-27.50-156Q-7-165 11-165M100 660L244 541L218 509L99 599L-18 509L-44 541L100 660Z"  horiz-adv-x="230" vert-adv-y="1000"  />

      
      <glyph glyph-name="uni0133" unicode="&#x0133;" d="M155 584Q155 568 143.50 556Q132 544 115 544Q99 544 87 556Q75 568 75 584Q75 601 87 612.50Q99 624 115 624Q132 624 143.50 612.50Q155 601 155 584M90 440L140 440L140 0L90 0L90 440M355 584Q355 568 343.50 556Q332 544 315 544Q299 544 287 556Q275 568 275 584Q275 601 287 612.50Q299 624 315 624Q332 624 343.50 612.50Q355 601 355 584M211-165Q247-165 268.50-136.50Q290-108 290-59L290 440L340 440L340-64Q340-129 304.50-169.50Q269-210 211-210Q182-210 153.50-198Q125-186 103-165L134-131Q152-147 172.50-156Q193-165 211-165Z"  horiz-adv-x="430" vert-adv-y="1000"  />

      
      <glyph glyph-name="uni0137" unicode="&#x0137;" d="M180 203L140 203L140 0L90 0L90 705L140 705L140 248L180 248Q241 248 275 269.50Q309 291 334 344L379 440L433 440L388 344Q369 304 349.50 278Q330 252 308 236L463 0L402 0L262 213Q245 208 224.50 205.50Q204 203 180 203M246-59Q262-59 274-72Q286-85 286-102Q286-110 284-118.50Q282-127 279-134L231-235L194-235L229-135Q217-128 210.50-119Q204-110 204-99Q204-83 216.50-71Q229-59 246-59Z"  horiz-adv-x="490" vert-adv-y="1000"  />

      
      <glyph glyph-name="uni0138" unicode="&#x0138;" d="M180 203L140 203L140 0L90 0L90 440L140 440L140 248L180 248Q241 248 275 269.50Q309 291 334 344L379 440L433 440L388 344Q369 304 349.50 278Q330 252 308 236L463 0L402 0L262 213Q245 208 224.50 205.50Q204 203 180 203Z"  horiz-adv-x="490" vert-adv-y="1000"  />

      
      <glyph glyph-name="uni013A" unicode="&#x013A;" d="M90 705L140 705L140 0L90 0L90 705M55 760L33 791L187 912L219 866L55 760Z"  horiz-adv-x="230" vert-adv-y="1000"  />

      
      <glyph glyph-name="uni013E" unicode="&#x013E;" d="M90 705L140 705L140 0L90 0L90 705M260 705L250 529L210 529L210 705L260 705Z"  horiz-adv-x="247" vert-adv-y="1000"  />

      
      <glyph glyph-name="uni013C" unicode="&#x013C;" d="M90 705L140 705L140 0L90 0L90 705M113-59Q129-59 141-72Q153-85 153-102Q153-110 151-118.50Q149-127 146-134L98-235L61-235L96-135Q84-128 77.50-119Q71-110 71-99Q71-83 83.50-71Q96-59 113-59Z"  horiz-adv-x="230" vert-adv-y="1000"  />

      
      <glyph glyph-name="uni0140" unicode="&#x0140;" d="M90 705L140 705L140 0L90 0L90 705M284 328Q284 310 271 297Q258 284 240 284Q222 284 209 297Q196 310 196 328Q196 346 209 359Q222 372 240 372Q258 372 271 359Q284 346 284 328Z"  horiz-adv-x="269" vert-adv-y="1000"  />

      
      <glyph glyph-name="unif1" unicode="&#xf1;" d="M290 404Q249 404 209 378Q169 352 140 305L140 0L90 0L90 440L130 440L140 368Q169 407 210 428.50Q251 450 295 450Q375 450 419 400Q463 350 463 259L463 0L413 0L413 256Q413 324 380 364Q347 404 290 404M337 538Q323 538 309 543.50Q295 549 270 565Q252 577 244 580.50Q236 584 229 584Q214 584 204 574.50Q194 565 185 541L147 559Q161 594 181 612Q201 630 228 630Q241 630 254.50 625Q268 620 292 604Q311 591 320 587.50Q329 584 336 584Q349 584 358 594.50Q367 605 379 634L417 618Q401 578 381 558Q361 538 337 538Z"  horiz-adv-x="545" vert-adv-y="1000"  />

      
      <glyph glyph-name="uni0144" unicode="&#x0144;" d="M290 404Q249 404 209 378Q169 352 140 305L140 0L90 0L90 440L130 440L140 368Q169 407 210 428.50Q251 450 295 450Q375 450 419 400Q463 350 463 259L463 0L413 0L413 256Q413 324 380 364Q347 404 290 404M213 510L191 541L345 662L377 616L213 510Z"  horiz-adv-x="545" vert-adv-y="1000"  />

      
      <glyph glyph-name="uni0148" unicode="&#x0148;" d="M290 404Q249 404 209 378Q169 352 140 305L140 0L90 0L90 440L130 440L140 368Q169 407 210 428.50Q251 450 295 450Q375 450 419 400Q463 350 463 259L463 0L413 0L413 256Q413 324 380 364Q347 404 290 404M397 660L423 628L279 509L135 628L161 660L280 570L397 660Z"  horiz-adv-x="545" vert-adv-y="1000"  />

      
      <glyph glyph-name="uni0146" unicode="&#x0146;" d="M290 404Q249 404 209 378Q169 352 140 305L140 0L90 0L90 440L130 440L140 368Q169 407 210 428.50Q251 450 295 450Q375 450 419 400Q463 350 463 259L463 0L413 0L413 256Q413 324 380 364Q347 404 290 404M271-59Q287-59 299-72Q311-85 311-102Q311-110 309-118.50Q307-127 304-134L256-235L219-235L254-135Q242-128 235.50-119Q229-110 229-99Q229-83 241.50-71Q254-59 271-59Z"  horiz-adv-x="545" vert-adv-y="1000"  />

      
      <glyph glyph-name="uni014B" unicode="&#x014B;" d="M295 450Q375 450 419 400Q463 350 463 259L463-64Q463-129 427.50-169.50Q392-210 334-210Q305-210 276.50-198Q248-186 226-165L257-131Q275-147 295.50-156Q316-165 334-165Q370-165 391.50-136.50Q413-108 413-59L413 256Q413 324 380 364Q347 404 290 404Q249 404 209 378Q169 352 140 305L140 0L90 0L90 440L130 440L140 368Q169 407 210 428.50Q251 450 295 450Z"  horiz-adv-x="545" vert-adv-y="1000"  />

      
      <glyph glyph-name="uni0149" unicode="&#x0149;" d="M290 404Q249 404 209 378Q169 352 140 305L140 0L90 0L90 440L130 440L140 368Q169 407 210 428.50Q251 450 295 450Q375 450 419 400Q463 350 463 259L463 0L413 0L413 256Q413 324 380 364Q347 404 290 404M93 685L17 475L-18 475L33 685L93 685Z"  horiz-adv-x="545" vert-adv-y="1000"  />

      
      <glyph glyph-name="unif3" unicode="&#xf3;" d="M501 220Q501 121 438 55.50Q375-10 279-10Q183-10 120 55.50Q57 121 57 220Q57 319 120 384.50Q183 450 279 450Q375 450 438 384.50Q501 319 501 220M109 220Q109 141 157.50 88.50Q206 36 279 36Q352 36 400.50 88.50Q449 141 449 220Q449 299 401 351.50Q353 404 279 404Q205 404 157 351.50Q109 299 109 220M209 510L187 541L341 662L373 616L209 510Z"  horiz-adv-x="558" vert-adv-y="1000"  />

      
      <glyph glyph-name="unif4" unicode="&#xf4;" d="M501 220Q501 121 438 55.50Q375-10 279-10Q183-10 120 55.50Q57 121 57 220Q57 319 120 384.50Q183 450 279 450Q375 450 438 384.50Q501 319 501 220M109 220Q109 141 157.50 88.50Q206 36 279 36Q352 36 400.50 88.50Q449 141 449 220Q449 299 401 351.50Q353 404 279 404Q205 404 157 351.50Q109 299 109 220M279 660L423 541L397 509L278 599L161 509L135 541L279 660Z"  horiz-adv-x="558" vert-adv-y="1000"  />

      
      <glyph glyph-name="unif6" unicode="&#xf6;" d="M501 220Q501 121 438 55.50Q375-10 279-10Q183-10 120 55.50Q57 121 57 220Q57 319 120 384.50Q183 450 279 450Q375 450 438 384.50Q501 319 501 220M109 220Q109 141 157.50 88.50Q206 36 279 36Q352 36 400.50 88.50Q449 141 449 220Q449 299 401 351.50Q353 404 279 404Q205 404 157 351.50Q109 299 109 220M234 588Q234 572 222.50 560.50Q211 549 195 549Q179 549 167.50 560.50Q156 572 156 588Q156 604 167.50 615.50Q179 627 195 627Q211 627 222.50 615.50Q234 604 234 588M402 588Q402 572 390.50 560.50Q379 549 363 549Q347 549 335.50 560.50Q324 572 324 588Q324 604 335.50 615.50Q347 627 363 627Q379 627 390.50 615.50Q402 604 402 588Z"  horiz-adv-x="558" vert-adv-y="1000"  />

      
      <glyph glyph-name="unif2" unicode="&#xf2;" d="M501 220Q501 121 438 55.50Q375-10 279-10Q183-10 120 55.50Q57 121 57 220Q57 319 120 384.50Q183 450 279 450Q375 450 438 384.50Q501 319 501 220M109 220Q109 141 157.50 88.50Q206 36 279 36Q352 36 400.50 88.50Q449 141 449 220Q449 299 401 351.50Q353 404 279 404Q205 404 157 351.50Q109 299 109 220M219 662L373 541L351 510L187 616L219 662Z"  horiz-adv-x="558" vert-adv-y="1000"  />

      
      <glyph glyph-name="unif5" unicode="&#xf5;" d="M501 220Q501 121 438 55.50Q375-10 279-10Q183-10 120 55.50Q57 121 57 220Q57 319 120 384.50Q183 450 279 450Q375 450 438 384.50Q501 319 501 220M109 220Q109 141 157.50 88.50Q206 36 279 36Q352 36 400.50 88.50Q449 141 449 220Q449 299 401 351.50Q353 404 279 404Q205 404 157 351.50Q109 299 109 220M333 538Q319 538 305 543.50Q291 549 266 565Q248 577 240 580.50Q232 584 225 584Q210 584 200 574.50Q190 565 181 541L143 559Q157 594 177 612Q197 630 224 630Q237 630 250.50 625Q264 620 288 604Q307 591 316 587.50Q325 584 332 584Q345 584 354 594.50Q363 605 375 634L413 618Q397 578 377 558Q357 538 333 538Z"  horiz-adv-x="558" vert-adv-y="1000"  />

      
      <glyph glyph-name="uni014F" unicode="&#x014F;" d="M501 220Q501 121 438 55.50Q375-10 279-10Q183-10 120 55.50Q57 121 57 220Q57 319 120 384.50Q183 450 279 450Q375 450 438 384.50Q501 319 501 220M109 220Q109 141 157.50 88.50Q206 36 279 36Q352 36 400.50 88.50Q449 141 449 220Q449 299 401 351.50Q353 404 279 404Q205 404 157 351.50Q109 299 109 220M279 552Q312 552 329 572.50Q346 593 346 631L346 643L394 643L394 621Q394 571 362 540Q330 509 279 509Q229 509 196.50 541Q164 573 164 623L164 643L212 643L212 633Q212 595 229.50 573.50Q247 552 279 552Z"  horiz-adv-x="558" vert-adv-y="1000"  />

      
      <glyph glyph-name="uni0151" unicode="&#x0151;" d="M501 220Q501 121 438 55.50Q375-10 279-10Q183-10 120 55.50Q57 121 57 220Q57 319 120 384.50Q183 450 279 450Q375 450 438 384.50Q501 319 501 220M109 220Q109 141 157.50 88.50Q206 36 279 36Q352 36 400.50 88.50Q449 141 449 220Q449 299 401 351.50Q353 404 279 404Q205 404 157 351.50Q109 299 109 220M197 508L170 530L276 689L319 659L197 508M351 508L324 530L430 689L473 659L351 508Z"  horiz-adv-x="558" vert-adv-y="1000"  />

      
      <glyph glyph-name="uni014D" unicode="&#x014D;" d="M501 220Q501 121 438 55.50Q375-10 279-10Q183-10 120 55.50Q57 121 57 220Q57 319 120 384.50Q183 450 279 450Q375 450 438 384.50Q501 319 501 220M109 220Q109 141 157.50 88.50Q206 36 279 36Q352 36 400.50 88.50Q449 141 449 220Q449 299 401 351.50Q353 404 279 404Q205 404 157 351.50Q109 299 109 220M164 602L394 602L394 555L164 555L164 602Z"  horiz-adv-x="558" vert-adv-y="1000"  />

      
      <glyph glyph-name="uni0155" unicode="&#x0155;" d="M290 397Q243 397 205.50 374.50Q168 352 140 308L140 0L90 0L90 440L130 440L139 369Q168 407 209.50 428.50Q251 450 295 450Q301 450 309 449.50Q317 449 322 448L314 395Q309 396 302 396.50Q295 397 290 397M143 510L121 541L275 662L307 616L143 510Z"  horiz-adv-x="336" vert-adv-y="1000"  />

      
      <glyph glyph-name="uni0159" unicode="&#x0159;" d="M290 397Q243 397 205.50 374.50Q168 352 140 308L140 0L90 0L90 440L130 440L139 369Q168 407 209.50 428.50Q251 450 295 450Q301 450 309 449.50Q317 449 322 448L314 395Q309 396 302 396.50Q295 397 290 397M301 660L327 628L183 509L39 628L65 660L184 570L301 660Z"  horiz-adv-x="336" vert-adv-y="1000"  />

      
      <glyph glyph-name="uni0157" unicode="&#x0157;" d="M290 397Q243 397 205.50 374.50Q168 352 140 308L140 0L90 0L90 440L130 440L139 369Q168 407 209.50 428.50Q251 450 295 450Q301 450 309 449.50Q317 449 322 448L314 395Q309 396 302 396.50Q295 397 290 397M111-59Q127-59 139-72Q151-85 151-102Q151-110 149-118.50Q147-127 144-134L96-235L59-235L94-135Q82-128 75.50-119Q69-110 69-99Q69-83 81.50-71Q94-59 111-59Z"  horiz-adv-x="336" vert-adv-y="1000"  />

      
      <glyph glyph-name="uni0161" unicode="&#x0161;" d="M65 334Q65 386 103 418Q141 450 202 450Q240 450 275 436.50Q310 423 339 397L307 359Q285 380 257.50 392Q230 404 202 404Q160 404 137.50 386Q115 368 115 335Q115 305 138 285Q161 265 232 244Q300 224 329 193.50Q358 163 358 118Q358 62 315 26Q272-10 203-10Q157-10 118.50 7Q80 24 45 59L78 96Q108 64 137.50 50Q167 36 203 36Q251 36 279.50 58.50Q308 81 308 118Q308 146 288.50 164Q269 182 206 202Q123 229 94 258.50Q65 288 65 334M322 660L348 628L204 509L60 628L86 660L205 570L322 660Z"  horiz-adv-x="408" vert-adv-y="1000"  />

      
      <glyph glyph-name="uni015B" unicode="&#x015B;" d="M65 334Q65 386 103 418Q141 450 202 450Q240 450 275 436.50Q310 423 339 397L307 359Q285 380 257.50 392Q230 404 202 404Q160 404 137.50 386Q115 368 115 335Q115 305 138 285Q161 265 232 244Q300 224 329 193.50Q358 163 358 118Q358 62 315 26Q272-10 203-10Q157-10 118.50 7Q80 24 45 59L78 96Q108 64 137.50 50Q167 36 203 36Q251 36 279.50 58.50Q308 81 308 118Q308 146 288.50 164Q269 182 206 202Q123 229 94 258.50Q65 288 65 334M139 510L117 541L271 662L303 616L139 510Z"  horiz-adv-x="408" vert-adv-y="1000"  />

      
      <glyph glyph-name="uni015F" unicode="&#x015F;" d="M289-132Q289-166 264-188Q239-210 199-210Q180-210 161.50-205.50Q143-201 124-192L138-152Q155-160 169.50-163.50Q184-167 199-167Q218-167 229.50-157.50Q241-148 241-132Q241-114 228-105.50Q215-97 188-97L158-71L178-9Q140-5 107.50 12Q75 29 45 59L78 96Q108 64 137.50 50Q167 36 203 36Q251 36 279.50 58.50Q308 81 308 118Q308 146 288.50 164Q269 182 206 202Q123 229 94 258.50Q65 288 65 334Q65 386 103 418Q141 450 202 450Q240 450 275 436.50Q310 423 339 397L307 359Q285 380 257.50 392Q230 404 202 404Q160 404 137.50 386Q115 368 115 335Q115 305 138 285Q161 265 232 244Q300 224 329 193.50Q358 163 358 118Q358 66 320.50 30.50Q283-5 221-9L206-55Q246-56 267.50-76Q289-96 289-132Z"  horiz-adv-x="408" vert-adv-y="1000"  />

      
      <glyph glyph-name="uni015D" unicode="&#x015D;" d="M65 334Q65 386 103 418Q141 450 202 450Q240 450 275 436.50Q310 423 339 397L307 359Q285 380 257.50 392Q230 404 202 404Q160 404 137.50 386Q115 368 115 335Q115 305 138 285Q161 265 232 244Q300 224 329 193.50Q358 163 358 118Q358 62 315 26Q272-10 203-10Q157-10 118.50 7Q80 24 45 59L78 96Q108 64 137.50 50Q167 36 203 36Q251 36 279.50 58.50Q308 81 308 118Q308 146 288.50 164Q269 182 206 202Q123 229 94 258.50Q65 288 65 334M204 660L348 541L322 509L203 599L86 509L60 541L204 660Z"  horiz-adv-x="408" vert-adv-y="1000"  />

      
      <glyph glyph-name="uni0219" unicode="&#x0219;" d="M65 334Q65 386 103 418Q141 450 202 450Q240 450 275 436.50Q310 423 339 397L307 359Q285 380 257.50 392Q230 404 202 404Q160 404 137.50 386Q115 368 115 335Q115 305 138 285Q161 265 232 244Q300 224 329 193.50Q358 163 358 118Q358 62 315 26Q272-10 203-10Q157-10 118.50 7Q80 24 45 59L78 96Q108 64 137.50 50Q167 36 203 36Q251 36 279.50 58.50Q308 81 308 118Q308 146 288.50 164Q269 182 206 202Q123 229 94 258.50Q65 288 65 334M202-59Q218-59 230-72Q242-85 242-102Q242-110 240-118.50Q238-127 235-134L187-235L150-235L185-135Q173-128 166.50-119Q160-110 160-99Q160-83 172.50-71Q185-59 202-59Z"  horiz-adv-x="408" vert-adv-y="1000"  />

      
      <glyph glyph-name="uni0167" unicode="&#x0167;" d="M122 395L26 395L26 435L122 440L123 440L132 564L172 564L172 440L334 440L334 395L172 395L172 262L334 262L334 219L172 219L172 128Q172 85 192.50 60Q213 35 248 35Q269 35 290 45.50Q311 56 330 76L359 45Q334 18 305.50 4Q277-10 246-10Q189-10 155.50 27.50Q122 65 122 128L122 219L26 219L26 262L122 262L122 395Z"  horiz-adv-x="387" vert-adv-y="1000"  />

      
      <glyph glyph-name="uni0165" unicode="&#x0165;" d="M122 395L26 395L26 435L122 440L123 440L132 564L172 564L172 440L334 440L334 395L172 395L172 128Q172 85 192.50 60Q213 35 248 35Q269 35 290 45.50Q311 56 330 76L359 45Q334 18 305.50 4Q277-10 246-10Q189-10 155.50 27.50Q122 65 122 128L122 395M287 685L277 509L237 509L237 685L287 685Z"  horiz-adv-x="387" vert-adv-y="1000"  />

      
      <glyph glyph-name="uni0163" unicode="&#x0163;" d="M122 395L26 395L26 435L122 440L123 440L132 564L172 564L172 440L334 440L334 395L172 395L172 128Q172 85 192.50 60Q213 35 248 35Q269 35 290 45.50Q311 56 330 76L359 45Q334 18 305.50 4Q277-10 246-10Q189-10 155.50 27.50Q122 65 122 128L122 395M204-59Q220-59 232-72Q244-85 244-102Q244-110 242-118.50Q240-127 237-134L189-235L152-235L187-135Q175-128 168.50-119Q162-110 162-99Q162-83 174.50-71Q187-59 204-59Z"  horiz-adv-x="387" vert-adv-y="1000"  />

      
      <glyph glyph-name="uni021B" unicode="&#x021B;" d="M122 395L26 395L26 435L122 440L123 440L132 564L172 564L172 440L334 440L334 395L172 395L172 128Q172 85 192.50 60Q213 35 248 35Q269 35 290 45.50Q311 56 330 76L359 45Q334 18 305.50 4Q277-10 246-10Q189-10 155.50 27.50Q122 65 122 128L122 395M204-59Q220-59 232-72Q244-85 244-102Q244-110 242-118.50Q240-127 237-134L189-235L152-235L187-135Q175-128 168.50-119Q162-110 162-99Q162-83 174.50-71Q187-59 204-59Z"  horiz-adv-x="387" vert-adv-y="1000"  />

      
      <glyph glyph-name="unifa" unicode="&#xfa;" d="M444 0L404 0L395 68Q366 31 326.50 10.50Q287-10 244-10Q166-10 123.50 37Q81 84 81 171L81 440L131 440L131 174Q131 108 162 72Q193 36 249 36Q290 36 328 61Q366 86 394 132L394 440L444 440L444 0M197 510L175 541L329 662L361 616L197 510Z"  horiz-adv-x="534" vert-adv-y="1000"  />

      
      <glyph glyph-name="unifb" unicode="&#xfb;" d="M444 0L404 0L395 68Q366 31 326.50 10.50Q287-10 244-10Q166-10 123.50 37Q81 84 81 171L81 440L131 440L131 174Q131 108 162 72Q193 36 249 36Q290 36 328 61Q366 86 394 132L394 440L444 440L444 0M267 660L411 541L385 509L266 599L149 509L123 541L267 660Z"  horiz-adv-x="534" vert-adv-y="1000"  />

      
      <glyph glyph-name="unifc" unicode="&#xfc;" d="M444 0L404 0L395 68Q366 31 326.50 10.50Q287-10 244-10Q166-10 123.50 37Q81 84 81 171L81 440L131 440L131 174Q131 108 162 72Q193 36 249 36Q290 36 328 61Q366 86 394 132L394 440L444 440L444 0M222 588Q222 572 210.50 560.50Q199 549 183 549Q167 549 155.50 560.50Q144 572 144 588Q144 604 155.50 615.50Q167 627 183 627Q199 627 210.50 615.50Q222 604 222 588M390 588Q390 572 378.50 560.50Q367 549 351 549Q335 549 323.50 560.50Q312 572 312 588Q312 604 323.50 615.50Q335 627 351 627Q367 627 378.50 615.50Q390 604 390 588Z"  horiz-adv-x="534" vert-adv-y="1000"  />

      
      <glyph glyph-name="unif9" unicode="&#xf9;" d="M444 0L404 0L395 68Q366 31 326.50 10.50Q287-10 244-10Q166-10 123.50 37Q81 84 81 171L81 440L131 440L131 174Q131 108 162 72Q193 36 249 36Q290 36 328 61Q366 86 394 132L394 440L444 440L444 0M207 662L361 541L339 510L175 616L207 662Z"  horiz-adv-x="534" vert-adv-y="1000"  />

      
      </font>
</defs>
</svg>
